<svg width="19" height="19" viewBox="0 0 19 19" fill="none" xmlns="http://www.w3.org/2000/svg">
<path d="M13.053 13.053C13.7086 12.3973 14.2287 11.619 14.5835 10.7624C14.9383 9.90577 15.1209 8.98765 15.1209 8.06046C15.1209 7.13327 14.9383 6.21515 14.5835 5.35854C14.2287 4.50192 13.7086 3.72359 13.053 3.06796C12.3973 2.41234 11.619 1.89227 10.7624 1.53745C9.90577 1.18262 8.98765 1 8.06046 1C7.13327 1 6.21515 1.18262 5.35854 1.53745C4.50192 1.89227 3.72359 2.41234 3.06796 3.06796C1.74387 4.39205 1 6.18791 1 8.06046C1 9.93301 1.74387 11.7289 3.06796 13.053C4.39205 14.3771 6.18791 15.1209 8.06046 15.1209C9.93301 15.1209 11.7289 14.3771 13.053 13.053ZM13.053 13.053L17.5 17.5" stroke="white" stroke-width="1.5" stroke-linecap="round" stroke-linejoin="round"/>
</svg>
