<svg width="52" height="69" viewBox="0 0 52 69" fill="none" xmlns="http://www.w3.org/2000/svg">
<ellipse cx="25.9001" cy="46.5" rx="24.5" ry="21.5" fill="white"/>
<ellipse cx="25.9001" cy="16.5" rx="17.5" ry="15.5" fill="white"/>
<path d="M21.9779 29.1029C21.0665 29.1029 20.1408 28.7345 19.225 28.6493C18.5078 28.5826 17.6035 28.3973 16.9319 28.139C16.4235 27.9435 15.899 27.8576 15.4011 27.6288C14.6086 27.2647 13.8022 26.886 13.0198 26.4948" stroke="white" stroke-linecap="round"/>
<path d="M20.2771 29.1029C18.8441 29.1029 17.6734 28.7019 16.2831 28.3595C15.2892 28.1147 14.3994 27.8194 13.5238 27.276C11.686 26.1352 9.8597 24.5707 9.11405 22.4693C8.26935 20.0888 8.22861 17.4743 8.25729 14.979C8.27994 13.0078 8.97615 11.3269 10.1598 9.76281C10.5654 9.22677 10.958 8.73677 11.3819 8.21309C11.8098 7.68453 12.3825 7.04893 12.9001 6.60036C14.2606 5.42125 15.292 4.33381 16.9001 3.49999C17.7081 3.08103 18.5513 2.85028 19.4001 2.49999C19.806 2.3325 20.5292 2.236 20.9001 1.99999C21.3995 1.6822 22.1269 1.83211 22.6962 1.7244C24.4194 1.39838 25.6764 1.5 27.4001 1.5C28.1843 1.5 29.5167 1.83648 30.2999 1.89449C30.9798 1.94485 31.6253 2.29867 32.2717 2.34177C33.8288 2.44557 35.2645 3.6113 36.6059 4.29467C37.5995 4.80085 38.3826 5.81941 39.1636 6.60036C40.0301 7.46684 40.7348 8.36894 41.4315 9.37223C42.1774 10.4463 42.903 11.4906 43.2962 12.7489C43.549 13.5579 43.7262 14.2438 43.9136 15.0735C44.1736 16.2251 44.1997 17.7553 43.9514 18.9226C43.6062 20.5448 42.9294 21.9226 42.1686 23.408C41.5223 24.6697 40.723 26.2902 39.5542 27.213C38.4221 28.1067 37.1784 28.9534 35.6988 28.9895C34.3748 29.0218 33.0583 29.1029 31.73 29.1029" stroke="black" stroke-linecap="round"/>
<path d="M14.4001 28C13.5236 28.171 13.1643 28.4082 12.3773 28.8509C11.8518 29.1465 11.4013 29.4034 10.9283 29.7581C10.1236 30.3616 9.20698 30.8816 8.44624 31.5409C8.00924 31.9196 7.71089 32.4494 7.2934 32.8449C6.49946 33.5971 5.90019 34.6327 5.1956 35.4782C4.37675 36.4608 3.71721 37.5492 2.9781 38.5839C1.32462 40.8988 1 43.7962 1 46.5531C1 49.2725 1.43304 51.9897 2.69462 54.434C3.13551 55.2882 3.60553 56.1094 4.06795 56.9476C4.70892 58.1093 5.6946 58.9157 6.44294 59.9966C7.90724 62.1117 9.87636 63.5236 12.0875 64.7718C12.6421 65.0849 13.3602 65.2447 13.864 65.6159C14.0679 65.7662 14.2226 65.8088 14.4688 65.8427C14.667 65.8701 14.7324 66.0825 14.8971 66.1703C15.8243 66.6648 17.0222 67.4374 18.0722 67.6318C18.6313 67.7354 19.0711 67.8764 19.6093 68.0476C20.1538 68.2209 20.8483 68.1106 21.4173 68.1106C22.774 68.1106 24.1137 68.1435 25.4554 67.8838C27.9556 67.3999 30.2617 66.6365 32.8198 66.6365C33.8739 66.6365 34.588 66.4394 35.5853 66.1829C36.3478 65.9868 37.1805 65.5598 37.8469 65.1498C38.6125 64.6786 39.4428 64.2621 40.1778 63.7449C41.2373 62.9994 42.3786 62.4354 43.3718 61.5967C44.2471 60.8576 44.7713 59.7862 45.6649 59.0957C46.4911 58.4573 47.2995 57.3696 47.9075 56.5444C48.776 55.3658 48.1954 55.2069 49 54C49.4706 53.2941 49.8042 51.8445 49.9297 51C50.0744 50.0268 50.7471 48.4993 50.4841 47.5C50.2513 46.6152 51.0873 45.4244 50.8684 44.5245C50.7491 44.0339 50.5785 43.6147 50.4841 43.1008C50.3579 42.4136 50.1588 41.5701 49.9297 40.9085C49.4995 39.6656 48.9631 38.4072 48.2603 37.2925C47.0801 35.4204 44.161 32.2896 42.4001 31C40.6205 29.6966 39.4001 29 38.4001 28.5" stroke="black" stroke-linecap="round"/>
<path d="M25.8223 36.1949C25.8607 36.1871 25.6461 36 25.5545 36C25.2144 36 25.0603 36.4261 24.8105 36.6785C24.4851 37.0074 24.3166 37.8072 24.4414 38.3027C24.6537 39.1453 25.4353 38.9885 25.9949 38.9885C26.5728 38.9885 27.1325 38.68 27.3461 38.014C27.7011 36.9068 26.2215 35.4399 25.4354 36.2238C24.9496 36.7082 24.3263 37.9671 25.1825 38.3641C25.8451 38.6713 26.8937 38.565 26.8937 37.4257C26.8937 36.7103 26.2539 36.6376 25.7807 36.7652C25.3605 36.8784 25.2714 37.5858 25.1795 38.014C25.0971 38.398 25.2165 38.6374 25.5991 38.5806C26.0097 38.5196 26.8342 38.1527 26.8342 37.5303C26.8342 37.1708 26.5434 36.9536 26.3342 36.7652C26.1135 36.5664 25.8051 36.457 25.6051 36.7724C25.4263 37.0542 25.3113 37.4175 25.2896 37.7721C25.2781 37.9607 25.3458 37.9452 25.4354 38.0789C25.6596 38.4136 26.1913 38.1306 26.3223 37.7902C26.3817 37.6357 26.3166 37.0349 26.4116 37.1117C26.5719 37.2412 26.7851 36.9449 26.7211 36.7507C26.5309 36.174 25.814 36.7969 25.8223 37.2488C25.8254 37.4192 25.9062 37.5743 26.0068 37.6891C26.2002 37.9098 26.1437 37.4431 26.1437 37.3138C26.1437 36.9035 25.6692 37.3839 25.5872 37.487C25.3756 37.7532 25.3456 37.8574 25.608 38.115C25.8937 38.3954 26.3296 37.4942 26.6288 37.4942C26.94 37.4942 27.0626 37.5041 27.2687 37.7541" stroke="black" stroke-linecap="round"/>
<path d="M26.7588 46.7417C26.1037 46.0188 25.8348 45.7455 24.9913 46.2795C24.499 46.5912 24.4224 46.7754 24.5247 47.3928C24.6141 47.9316 24.7307 48.6809 25.2459 48.8959C26.0701 49.24 26.6562 48.3717 27.1688 47.7545C27.7532 47.0511 26.6653 46.541 26.2533 46.2755C25.6639 45.8958 24.4746 46.6892 24.4046 47.4651C24.3468 48.1051 24.8644 48.8308 25.4085 48.9683C26.0808 49.1382 27.1162 48.6085 27.2643 47.7947C27.3287 47.4404 27.5247 46.9625 27.2819 46.6533C27.0353 46.3393 26.89 46.1705 26.5043 46.1067C25.6728 45.9692 24.7474 46.4722 24.7899 47.5335C24.8331 48.6163 26.0958 48.3751 26.4866 47.642C26.6317 47.3697 26.6528 46.6905 26.3911 46.4845C25.9656 46.1495 25.5982 47.0399 25.564 47.3767C25.4975 48.0323 25.8239 47.8933 26.0447 47.433C26.2022 47.1047 25.6722 46.3955 25.564 46.6292C25.3895 47.0061 25.6534 47.6101 25.9705 47.7465C26.3459 47.908 26.7363 47.6391 26.8507 47.2119C27.0676 46.4016 26.4196 46.2374 25.8998 46.5689C25.685 46.7059 25.2623 46.9105 25.2953 47.2481C25.3169 47.4692 25.6996 47.8857 25.8963 47.8349C26.3816 47.7095 26.18 47.3135 25.8397 47.1476C25.5014 46.9828 25.1993 47.2194 25.0514 47.5696C24.9376 47.8393 25.2727 47.9752 25.4579 48.0278C25.7131 48.1003 25.9145 47.8896 26.1225 47.7545" stroke="black" stroke-linecap="round"/>
<path d="M16.3959 14.3142C17.0588 14.2405 17.7992 13.3939 18.2613 13.0417C19.2414 12.295 20.9322 11.4681 21.5105 10.3115" stroke="black" stroke-linecap="round"/>
<path d="M30.5165 9.75558C30.8216 10.8744 31.9205 12.0067 32.734 12.7576C33.271 13.2533 33.785 13.7181 34.408 14.0919" stroke="black" stroke-linecap="round"/>
<path d="M20.3985 16.7603C20.1168 16.7251 20.1834 16.4655 19.7808 16.5997C19.2298 16.7834 19.4227 16.9753 19.7314 17.2668C20.0206 17.54 20.1753 17.8762 20.5715 17.6498C21.1229 17.3347 21.0432 16.7603 20.3923 16.7603C20.2519 16.7603 19.6285 16.6714 19.5337 16.785C19.3167 17.0454 19.4704 17.5193 19.7314 17.6498" stroke="black" stroke-linecap="round"/>
<path d="M31.6284 16.3156C31.0234 15.9433 29.7738 16.5669 30.6277 17.0692C30.8021 17.1717 30.9839 17.3309 31.1589 17.4522C31.3084 17.5556 32.047 17.5514 32.0731 17.3163C32.109 16.9934 31.4151 16.2404 31.4554 16.5627C31.4855 16.8032 32.0731 17.2434 32.0731 16.7603" stroke="black" stroke-linecap="round"/>
</svg>
