<svg width="18" height="20" viewBox="0 0 18 20" fill="none" xmlns="http://www.w3.org/2000/svg">
<path d="M3.89052 16.785C4.24202 16.785 4.51152 16.48 4.51152 16.0585L4.50002 13.3985L5.57802 12.7775L8.50802 10.844L8.30852 14.3475V15.59L5.98852 16.9025C5.61352 17.1135 5.49602 17.5 5.68352 17.8045C5.88302 18.168 6.25802 18.2145 6.62102 18.004L8.30852 17.043V19.164C8.30852 19.5975 8.59002 19.9025 9.00002 19.9025C9.43352 19.9025 9.69152 19.5975 9.69152 19.164V17.043L11.367 18.004C11.7305 18.215 12.1055 18.168 12.3165 17.8165C12.504 17.5 12.375 17.1135 12 16.9025L9.69152 15.59V14.3475L9.49202 10.844L12.422 12.7655L13.5 13.3865L13.4765 16.0585C13.4765 16.4805 13.7465 16.785 14.1095 16.785C14.531 16.785 14.754 16.4685 14.754 16.0585V14.125L16.6055 15.1915C16.9805 15.4025 17.367 15.3205 17.5665 14.9455C17.7775 14.594 17.66 14.1835 17.2965 13.9845L15.4455 12.918L17.121 11.9455C17.4845 11.7345 17.637 11.383 17.426 11.0315C17.2385 10.715 16.8635 10.6215 16.4885 10.844L14.1915 12.1915L13.1135 11.5705L9.97252 10L13.1135 8.43L14.1915 7.797L16.4885 9.1445C16.8515 9.367 17.25 9.2735 17.4375 8.9685C17.6365 8.6055 17.4845 8.2535 17.121 8.043L15.457 7.0705L17.297 6.0155C17.672 5.793 17.789 5.418 17.5665 5.043C17.367 4.6915 16.9805 4.586 16.6055 4.8085L14.754 5.875L14.742 3.93C14.742 3.52 14.531 3.203 14.1095 3.215C13.746 3.215 13.4765 3.508 13.4765 3.93L13.5 6.601L12.422 7.222L9.49202 9.144L9.69152 5.64V4.398L12 3.086C12.375 2.875 12.504 2.488 12.3165 2.1835C12.1055 1.8205 11.7305 1.7735 11.367 1.9845L9.69152 2.9455V0.824004C9.69152 0.390504 9.43352 0.0975037 9.00002 0.0975037C8.59002 0.0975037 8.30852 0.390504 8.30852 0.824004V2.9455L6.62102 1.9845C6.25802 1.785 5.88302 1.8205 5.68352 2.1835C5.49602 2.4885 5.61352 2.875 5.98852 3.086L8.30852 4.3985V5.6405L8.50802 9.1565L5.57802 7.2225L4.50002 6.59L4.51152 3.93C4.51152 3.508 4.24202 3.215 3.89052 3.215C3.46902 3.215 3.24602 3.52 3.24602 3.93L3.23452 5.8635L1.39452 4.8085C1.03152 4.5975 0.633022 4.6915 0.433522 5.043C0.211022 5.418 0.340022 5.8045 0.703522 6.0155L2.54302 7.0705L0.879023 8.043C0.515523 8.254 0.351523 8.594 0.562523 8.969C0.738523 9.2735 1.14852 9.367 1.51202 9.1445L3.80852 7.8085L4.88652 8.4295L8.02802 10L4.88702 11.57L3.80902 12.1915L1.51202 10.8435C1.13702 10.621 0.750523 10.715 0.574523 11.0195C0.375523 11.3945 0.516023 11.7345 0.879523 11.9455L2.54352 12.918L0.703522 13.9845C0.340522 14.1835 0.223523 14.5935 0.434023 14.9455C0.645023 15.3205 1.03152 15.3905 1.39502 15.1915L3.23502 14.125L3.24652 16.0585C3.24652 16.4685 3.46902 16.785 3.89152 16.785" fill="#41718F"/>
</svg>
