<svg width="320" height="171" viewBox="0 0 320 171" fill="none" xmlns="http://www.w3.org/2000/svg">
<g filter="url(#filter0_b_46_3)">
<path d="M0 19C0 8.50659 8.50659 0 19 0H301C311.493 0 320 8.50659 320 19V64C320 74.4934 311.493 83 301 83H179.018C171.939 83 165.447 86.9353 162.172 93.2112L161.5 94.5L160.455 92.6509C157.084 86.6874 150.764 83 143.914 83H19C8.50659 83 0 74.4934 0 64V19Z" fill="white" fill-opacity="0.7"/>
<path d="M0.5 19C0.5 8.78273 8.78273 0.5 19 0.5H301C311.217 0.5 319.5 8.78273 319.5 19V64C319.5 74.2173 311.217 82.5 301 82.5H179.018C171.752 82.5 165.09 86.5388 161.729 92.98L161.482 93.4527L160.89 92.4049C157.431 86.2844 150.945 82.5 143.914 82.5H19C8.78273 82.5 0.5 74.2173 0.5 64V19Z" stroke="white"/>
</g>
<ellipse cx="162.9" cy="148.5" rx="24.5" ry="21.5" fill="white"/>
<ellipse cx="162.9" cy="118.5" rx="17.5" ry="15.5" fill="white"/>
<path d="M158.978 131.103C158.066 131.103 157.141 130.734 156.225 130.649C155.508 130.583 154.604 130.397 153.932 130.139C153.423 129.943 152.899 129.858 152.401 129.629C151.609 129.265 150.802 128.886 150.02 128.495" stroke="white" stroke-linecap="round"/>
<path d="M157.277 131.103C155.844 131.103 154.673 130.702 153.283 130.36C152.289 130.115 151.399 129.819 150.524 129.276C148.686 128.135 146.86 126.571 146.114 124.469C145.269 122.089 145.229 119.474 145.257 116.979C145.28 115.008 145.976 113.327 147.16 111.763C147.565 111.227 147.958 110.737 148.382 110.213C148.81 109.685 149.383 109.049 149.9 108.6C151.261 107.421 152.292 106.334 153.9 105.5C154.708 105.081 155.551 104.85 156.4 104.5C156.806 104.333 157.529 104.236 157.9 104C158.4 103.682 159.127 103.832 159.696 103.724C161.419 103.398 162.676 103.5 164.4 103.5C165.184 103.5 166.517 103.836 167.3 103.894C167.98 103.945 168.625 104.299 169.272 104.342C170.829 104.446 172.264 105.611 173.606 106.295C174.6 106.801 175.383 107.819 176.164 108.6C177.03 109.467 177.735 110.369 178.431 111.372C179.177 112.446 179.903 113.491 180.296 114.749C180.549 115.558 180.726 116.244 180.914 117.073C181.174 118.225 181.2 119.755 180.951 120.923C180.606 122.545 179.929 123.923 179.169 125.408C178.522 126.67 177.723 128.29 176.554 129.213C175.422 130.107 174.178 130.953 172.699 130.989C171.375 131.022 170.058 131.103 168.73 131.103" stroke="black" stroke-linecap="round"/>
<path d="M151.4 130C150.524 130.171 150.164 130.408 149.377 130.851C148.852 131.146 148.401 131.403 147.928 131.758C147.124 132.362 146.207 132.882 145.446 133.541C145.009 133.92 144.711 134.449 144.293 134.845C143.499 135.597 142.9 136.633 142.196 137.478C141.377 138.461 140.717 139.549 139.978 140.584C138.325 142.899 138 145.796 138 148.553C138 151.272 138.433 153.99 139.695 156.434C140.136 157.288 140.606 158.109 141.068 158.948C141.709 160.109 142.695 160.916 143.443 161.997C144.907 164.112 146.876 165.524 149.087 166.772C149.642 167.085 150.36 167.245 150.864 167.616C151.068 167.766 151.223 167.809 151.469 167.843C151.667 167.87 151.732 168.082 151.897 168.17C152.824 168.665 154.022 169.437 155.072 169.632C155.631 169.735 156.071 169.876 156.609 170.048C157.154 170.221 157.848 170.111 158.417 170.111C159.774 170.111 161.114 170.144 162.455 169.884C164.956 169.4 167.262 168.636 169.82 168.636C170.874 168.636 171.588 168.439 172.585 168.183C173.348 167.987 174.181 167.56 174.847 167.15C175.612 166.679 176.443 166.262 177.178 165.745C178.237 164.999 179.379 164.435 180.372 163.597C181.247 162.858 181.771 161.786 182.665 161.096C183.491 160.457 184.299 159.37 184.908 158.544C185.776 157.366 185.195 157.207 186 156C186.471 155.294 186.804 153.844 186.93 153C187.074 152.027 187.747 150.499 187.484 149.5C187.251 148.615 188.087 147.424 187.868 146.525C187.749 146.034 187.579 145.615 187.484 145.101C187.358 144.414 187.159 143.57 186.93 142.909C186.5 141.666 185.963 140.407 185.26 139.292C184.08 137.42 181.161 134.29 179.4 133C177.62 131.697 176.4 131 175.4 130.5" stroke="black" stroke-linecap="round"/>
<path d="M162.822 138.195C162.861 138.187 162.646 138 162.554 138C162.214 138 162.06 138.426 161.81 138.679C161.485 139.007 161.317 139.807 161.441 140.303C161.654 141.145 162.435 140.988 162.995 140.988C163.573 140.988 164.133 140.68 164.346 140.014C164.701 138.907 163.222 137.44 162.435 138.224C161.95 138.708 161.326 139.967 162.182 140.364C162.845 140.671 163.894 140.565 163.894 139.426C163.894 138.71 163.254 138.638 162.781 138.765C162.361 138.878 162.271 139.586 162.179 140.014C162.097 140.398 162.216 140.637 162.599 140.581C163.01 140.52 163.834 140.153 163.834 139.53C163.834 139.171 163.543 138.954 163.334 138.765C163.114 138.566 162.805 138.457 162.605 138.772C162.426 139.054 162.311 139.418 162.29 139.772C162.278 139.961 162.346 139.945 162.435 140.079C162.66 140.414 163.191 140.131 163.322 139.79C163.382 139.636 163.317 139.035 163.412 139.112C163.572 139.241 163.785 138.945 163.721 138.751C163.531 138.174 162.814 138.797 162.822 139.249C162.825 139.419 162.906 139.574 163.007 139.689C163.2 139.91 163.144 139.443 163.144 139.314C163.144 138.904 162.669 139.384 162.587 139.487C162.376 139.753 162.346 139.857 162.608 140.115C162.894 140.395 163.33 139.494 163.629 139.494C163.94 139.494 164.063 139.504 164.269 139.754" stroke="black" stroke-linecap="round"/>
<path d="M163.759 148.742C163.104 148.019 162.835 147.746 161.991 148.28C161.499 148.591 161.422 148.775 161.525 149.393C161.614 149.932 161.731 150.681 162.246 150.896C163.07 151.24 163.656 150.372 164.169 149.755C164.753 149.051 163.665 148.541 163.253 148.276C162.664 147.896 161.475 148.689 161.405 149.465C161.347 150.105 161.864 150.831 162.408 150.968C163.081 151.138 164.116 150.609 164.264 149.795C164.329 149.44 164.525 148.962 164.282 148.653C164.035 148.339 163.89 148.171 163.504 148.107C162.673 147.969 161.747 148.472 161.79 149.533C161.833 150.616 163.096 150.375 163.487 149.642C163.632 149.37 163.653 148.69 163.391 148.485C162.966 148.15 162.598 149.04 162.564 149.377C162.497 150.032 162.824 149.893 163.045 149.433C163.202 149.105 162.672 148.395 162.564 148.629C162.39 149.006 162.653 149.61 162.97 149.746C163.346 149.908 163.736 149.639 163.851 149.212C164.068 148.402 163.42 148.237 162.9 148.569C162.685 148.706 162.262 148.91 162.295 149.248C162.317 149.469 162.7 149.886 162.896 149.835C163.382 149.709 163.18 149.313 162.84 149.148C162.501 148.983 162.199 149.219 162.051 149.57C161.938 149.839 162.273 149.975 162.458 150.028C162.713 150.1 162.915 149.89 163.122 149.755" stroke="black" stroke-linecap="round"/>
<path d="M153.396 116.314C154.059 116.241 154.799 115.394 155.261 115.042C156.241 114.295 157.932 113.468 158.51 112.311" stroke="black" stroke-linecap="round"/>
<path d="M167.516 111.756C167.822 112.874 168.921 114.007 169.734 114.758C170.271 115.253 170.785 115.718 171.408 116.092" stroke="black" stroke-linecap="round"/>
<path d="M157.399 118.76C157.117 118.725 157.183 118.466 156.781 118.6C156.23 118.783 156.423 118.975 156.731 119.267C157.021 119.54 157.175 119.876 157.571 119.65C158.123 119.335 158.043 118.76 157.392 118.76C157.252 118.76 156.628 118.671 156.534 118.785C156.317 119.045 156.47 119.519 156.731 119.65" stroke="black" stroke-linecap="round"/>
<path d="M168.628 118.316C168.023 117.943 166.774 118.567 167.628 119.069C167.802 119.172 167.984 119.331 168.159 119.452C168.308 119.556 169.047 119.551 169.073 119.316C169.109 118.993 168.415 118.24 168.455 118.563C168.486 118.803 169.073 119.243 169.073 118.76" stroke="black" stroke-linecap="round"/>
<path d="M37.2334 44.4922C37.2334 45.0508 37.3838 45.4733 37.6846 45.7598C37.9997 46.0462 38.458 46.1895 39.0596 46.1895H41.2725V47.9297H39.0596C37.7705 47.9297 36.8682 47.6576 36.3525 47.1133C35.8369 46.5547 35.5791 45.7383 35.5791 44.6641V35.6406H37.2334V44.4922ZM49.3506 44.127C49.3506 45.4733 49.0785 46.4831 48.5342 47.1562C47.9899 47.8151 47.1807 48.1445 46.1064 48.1445C44.9893 48.1445 44.1442 47.8008 43.5713 47.1133C42.9984 46.4115 42.7119 45.416 42.7119 44.127V42.4297C42.7119 41.3555 43.0055 40.4603 43.5928 39.7441C44.18 39.028 45.0322 38.6699 46.1494 38.6699C46.665 38.6699 47.1162 38.763 47.5029 38.9492C47.904 39.1354 48.2406 39.4076 48.5127 39.7656C48.7848 40.1237 48.9925 40.5319 49.1357 40.9902C49.279 41.4342 49.3506 41.9141 49.3506 42.4297V44.127ZM47.7393 42.5371C47.7393 41.8926 47.6032 41.3841 47.3311 41.0117C47.0589 40.625 46.6292 40.4316 46.042 40.4316C45.4404 40.4316 44.9964 40.6465 44.71 41.0762C44.4235 41.4915 44.2803 41.9785 44.2803 42.5371V44.2344C44.2803 44.8359 44.4092 45.3659 44.667 45.8242C44.9391 46.2682 45.3975 46.4902 46.042 46.4902C46.6006 46.4902 47.0231 46.2969 47.3096 45.9102C47.596 45.5091 47.7393 44.9434 47.7393 44.2129V42.5371ZM58.46 44.127C58.46 45.4733 58.1878 46.4831 57.6436 47.1562C57.0993 47.8151 56.29 48.1445 55.2158 48.1445C54.0986 48.1445 53.2536 47.8008 52.6807 47.1133C52.1077 46.4115 51.8213 45.416 51.8213 44.127V42.4297C51.8213 41.3555 52.1149 40.4603 52.7021 39.7441C53.2894 39.028 54.1416 38.6699 55.2588 38.6699C55.7744 38.6699 56.2256 38.763 56.6123 38.9492C57.0133 39.1354 57.3499 39.4076 57.6221 39.7656C57.8942 40.1237 58.1019 40.5319 58.2451 40.9902C58.3883 41.4342 58.46 41.9141 58.46 42.4297V44.127ZM56.8486 42.5371C56.8486 41.8926 56.7126 41.3841 56.4404 41.0117C56.1683 40.625 55.7386 40.4316 55.1514 40.4316C54.5498 40.4316 54.1058 40.6465 53.8193 41.0762C53.5329 41.4915 53.3896 41.9785 53.3896 42.5371V44.2344C53.3896 44.8359 53.5186 45.3659 53.7764 45.8242C54.0485 46.2682 54.5068 46.4902 55.1514 46.4902C55.71 46.4902 56.1325 46.2969 56.4189 45.9102C56.7054 45.5091 56.8486 44.9434 56.8486 44.2129V42.5371ZM65.3779 42.5371C66.1514 42.666 66.71 42.9954 67.0537 43.5254C67.3975 44.0553 67.5693 44.8359 67.5693 45.8672V47.9082H65.958V45.8672C65.958 45.4375 65.8363 45.0651 65.5928 44.75C65.3636 44.4206 64.9984 44.2559 64.4971 44.2559C64.0244 44.2559 63.6735 44.4277 63.4443 44.7715C63.2295 45.1152 63.1221 45.4805 63.1221 45.8672V47.9082H61.4248V34.7812H63.0791V42.5801L66.4092 38.8418L67.6553 40.0449L65.3779 42.5371ZM74.208 38.7559V40.3887H72.4893C72.1455 40.3887 71.9235 40.4746 71.8232 40.6465C71.723 40.804 71.6729 40.9544 71.6729 41.0977C71.6729 41.3555 71.8877 41.599 72.3174 41.8281C72.7614 42.043 73.2269 42.3151 73.7139 42.6445C74.2152 42.9883 74.6449 43.4108 75.0029 43.9121C75.3753 44.4134 75.4899 45.0651 75.3467 45.8672C75.1891 46.5977 74.8669 47.1419 74.3799 47.5C73.8929 47.8581 73.2627 48.0371 72.4893 48.0371C72.3604 48.0371 72.1813 48.0371 71.9521 48.0371C71.723 48.0371 71.4938 48.0371 71.2646 48.0371C71.0355 48.0371 70.835 48.0371 70.6631 48.0371C70.5055 48.0371 70.4268 48.0371 70.4268 48.0371V46.3398H72.0811C72.3818 46.3398 72.6611 46.3255 72.9189 46.2969C73.1768 46.2539 73.363 46.125 73.4775 45.9102C73.6208 45.638 73.6709 45.4017 73.6279 45.2012C73.5993 45.0007 73.5062 44.8145 73.3486 44.6426C73.2054 44.4707 73.012 44.3203 72.7686 44.1914C72.5251 44.0482 72.2673 43.8978 71.9951 43.7402C71.723 43.597 71.4508 43.4395 71.1787 43.2676C70.9209 43.0814 70.6846 42.8737 70.4697 42.6445C70.2549 42.4297 70.083 42.1719 69.9541 41.8711C69.8395 41.5703 69.7965 41.2122 69.8252 40.7969C69.8682 40.0807 70.1618 39.5651 70.7061 39.25C71.2503 38.9206 71.9307 38.7559 72.7471 38.7559H74.208ZM84.0693 47.9297V34.7812H85.6807V47.9297H84.0693ZM88.0439 47.9082V38.8418H89.7197V47.9082H88.0439ZM88.0439 34.7383H89.7197V36.5645H88.0439V34.7383ZM96.2939 42.5371C97.0674 42.666 97.626 42.9954 97.9697 43.5254C98.3135 44.0553 98.4854 44.8359 98.4854 45.8672V47.9082H96.874V45.8672C96.874 45.4375 96.7523 45.0651 96.5088 44.75C96.2796 44.4206 95.9144 44.2559 95.4131 44.2559C94.9404 44.2559 94.5895 44.4277 94.3604 44.7715C94.1455 45.1152 94.0381 45.4805 94.0381 45.8672V47.9082H92.3408V34.7812H93.9951V42.5801L97.3252 38.8418L98.5713 40.0449L96.2939 42.5371ZM104.587 46.3613C104.759 46.4043 105.017 46.4258 105.36 46.4258C105.704 46.4258 106.134 46.4043 106.649 46.3613V48.0371C106.177 48.0944 105.769 48.1302 105.425 48.1445C105.081 48.1445 104.802 48.123 104.587 48.0801C103.427 48.0085 102.481 47.5573 101.751 46.7266C101.021 45.8958 100.655 44.6426 100.655 42.9668C100.655 41.6348 100.97 40.5892 101.601 39.8301C102.245 39.0566 103.104 38.6699 104.179 38.6699C104.737 38.6699 105.217 38.7773 105.618 38.9922C106.034 39.1927 106.377 39.4863 106.649 39.873C106.907 40.2741 107.108 40.7109 107.251 41.1836C107.394 41.6562 107.466 42.1504 107.466 42.666V44.1484H102.374C102.374 44.707 102.575 45.2083 102.976 45.6523C103.391 46.082 103.928 46.3184 104.587 46.3613ZM104.136 40.3027C103.792 40.3027 103.498 40.3743 103.255 40.5176C103.026 40.6608 102.847 40.8613 102.718 41.1191C102.589 41.3913 102.489 41.6491 102.417 41.8926C102.36 42.1217 102.331 42.3366 102.331 42.5371H105.876C105.876 42.3366 105.847 42.1217 105.79 41.8926C105.733 41.6491 105.647 41.3913 105.532 41.1191C105.418 40.8613 105.239 40.6608 104.995 40.5176C104.766 40.3743 104.479 40.3027 104.136 40.3027ZM115.909 47.9082V38.8418H117.585V47.9082H115.909ZM115.909 34.7383H117.585V36.5645H115.909V34.7383ZM123.622 46.0605V47.8652H122.849C121.688 47.8652 120.872 47.5573 120.399 46.9414C119.941 46.3112 119.712 45.3229 119.712 43.9766V35.6406H121.388V38.9062H123.386V40.668H121.388V43.8047C121.388 44.6354 121.502 45.2227 121.731 45.5664C121.961 45.8958 122.333 46.0605 122.849 46.0605H123.622ZM127.253 38.8848H126.437L126.157 34.8242H127.854L127.253 38.8848ZM134.343 38.7559V40.3887H132.624C132.28 40.3887 132.058 40.4746 131.958 40.6465C131.858 40.804 131.808 40.9544 131.808 41.0977C131.808 41.3555 132.022 41.599 132.452 41.8281C132.896 42.043 133.362 42.3151 133.849 42.6445C134.35 42.9883 134.78 43.4108 135.138 43.9121C135.51 44.4134 135.625 45.0651 135.481 45.8672C135.324 46.5977 135.002 47.1419 134.515 47.5C134.028 47.8581 133.397 48.0371 132.624 48.0371C132.495 48.0371 132.316 48.0371 132.087 48.0371C131.858 48.0371 131.629 48.0371 131.399 48.0371C131.17 48.0371 130.97 48.0371 130.798 48.0371C130.64 48.0371 130.562 48.0371 130.562 48.0371V46.3398H132.216C132.517 46.3398 132.796 46.3255 133.054 46.2969C133.312 46.2539 133.498 46.125 133.612 45.9102C133.756 45.638 133.806 45.4017 133.763 45.2012C133.734 45.0007 133.641 44.8145 133.483 44.6426C133.34 44.4707 133.147 44.3203 132.903 44.1914C132.66 44.0482 132.402 43.8978 132.13 43.7402C131.858 43.597 131.586 43.4395 131.313 43.2676C131.056 43.0814 130.819 42.8737 130.604 42.6445C130.39 42.4297 130.218 42.1719 130.089 41.8711C129.974 41.5703 129.931 41.2122 129.96 40.7969C130.003 40.0807 130.297 39.5651 130.841 39.25C131.385 38.9206 132.065 38.7559 132.882 38.7559H134.343ZM144.226 42.4727C144.226 41.2695 144.483 40.3385 144.999 39.6797C145.515 39.0065 146.274 38.6699 147.276 38.6699C148.293 38.6699 149.045 39.0065 149.532 39.6797C150.034 40.3385 150.284 41.2695 150.284 42.4727V47.9082H148.651V42.5156C148.651 42.2578 148.63 42.0143 148.587 41.7852C148.558 41.5417 148.515 41.3125 148.458 41.0977C148.386 40.8828 148.25 40.7253 148.05 40.625C147.864 40.5104 147.606 40.4531 147.276 40.4531C146.961 40.4531 146.703 40.5104 146.503 40.625C146.302 40.7396 146.159 40.9043 146.073 41.1191C145.987 41.3483 145.923 41.5775 145.88 41.8066C145.851 42.0358 145.837 42.2721 145.837 42.5156V47.9082H144.226V42.4727ZM159.308 44.127C159.308 45.4733 159.035 46.4831 158.491 47.1562C157.947 47.8151 157.138 48.1445 156.063 48.1445C154.946 48.1445 154.101 47.8008 153.528 47.1133C152.955 46.4115 152.669 45.416 152.669 44.127V42.4297C152.669 41.3555 152.963 40.4603 153.55 39.7441C154.137 39.028 154.989 38.6699 156.106 38.6699C156.622 38.6699 157.073 38.763 157.46 38.9492C157.861 39.1354 158.198 39.4076 158.47 39.7656C158.742 40.1237 158.95 40.5319 159.093 40.9902C159.236 41.4342 159.308 41.9141 159.308 42.4297V44.127ZM157.696 42.5371C157.696 41.8926 157.56 41.3841 157.288 41.0117C157.016 40.625 156.586 40.4316 155.999 40.4316C155.397 40.4316 154.953 40.6465 154.667 41.0762C154.381 41.4915 154.237 41.9785 154.237 42.5371V44.2344C154.237 44.8359 154.366 45.3659 154.624 45.8242C154.896 46.2682 155.354 46.4902 155.999 46.4902C156.558 46.4902 156.98 46.2969 157.267 45.9102C157.553 45.5091 157.696 44.9434 157.696 44.2129V42.5371ZM165.688 46.0605V47.8652H164.915C163.755 47.8652 162.938 47.5573 162.466 46.9414C162.007 46.3112 161.778 45.3229 161.778 43.9766V35.6406H163.454V38.9062H165.452V40.668H163.454V43.8047C163.454 44.6354 163.569 45.2227 163.798 45.5664C164.027 45.8958 164.399 46.0605 164.915 46.0605H165.688ZM178.708 38.7559V40.3887H176.989C176.646 40.3887 176.424 40.4746 176.323 40.6465C176.223 40.804 176.173 40.9544 176.173 41.0977C176.173 41.3555 176.388 41.599 176.817 41.8281C177.261 42.043 177.727 42.3151 178.214 42.6445C178.715 42.9883 179.145 43.4108 179.503 43.9121C179.875 44.4134 179.99 45.0651 179.847 45.8672C179.689 46.5977 179.367 47.1419 178.88 47.5C178.393 47.8581 177.763 48.0371 176.989 48.0371C176.86 48.0371 176.681 48.0371 176.452 48.0371C176.223 48.0371 175.994 48.0371 175.765 48.0371C175.535 48.0371 175.335 48.0371 175.163 48.0371C175.006 48.0371 174.927 48.0371 174.927 48.0371V46.3398H176.581C176.882 46.3398 177.161 46.3255 177.419 46.2969C177.677 46.2539 177.863 46.125 177.978 45.9102C178.121 45.638 178.171 45.4017 178.128 45.2012C178.099 45.0007 178.006 44.8145 177.849 44.6426C177.705 44.4707 177.512 44.3203 177.269 44.1914C177.025 44.0482 176.767 43.8978 176.495 43.7402C176.223 43.597 175.951 43.4395 175.679 43.2676C175.421 43.0814 175.185 42.8737 174.97 42.6445C174.755 42.4297 174.583 42.1719 174.454 41.8711C174.34 41.5703 174.297 41.2122 174.325 40.7969C174.368 40.0807 174.662 39.5651 175.206 39.25C175.75 38.9206 176.431 38.7559 177.247 38.7559H178.708ZM182.146 42.4727C182.146 41.2695 182.403 40.3385 182.919 39.6797C183.435 39.0065 184.194 38.6699 185.196 38.6699C186.213 38.6699 186.965 39.0065 187.452 39.6797C187.953 40.3385 188.204 41.2695 188.204 42.4727V47.9082H186.571V42.5156C186.571 42.2578 186.55 42.0143 186.507 41.7852C186.478 41.5417 186.435 41.3125 186.378 41.0977C186.306 40.8828 186.17 40.7253 185.97 40.625C185.784 40.5104 185.526 40.4531 185.196 40.4531C184.881 40.4531 184.623 40.5104 184.423 40.625C184.222 40.7396 184.079 40.9043 183.993 41.1191C183.907 41.3483 183.843 41.5775 183.8 41.8066C183.771 42.0358 183.757 42.2721 183.757 42.5156V47.9082H182.146V42.4727ZM197.228 44.127C197.228 45.4733 196.955 46.4831 196.411 47.1562C195.867 47.8151 195.058 48.1445 193.983 48.1445C192.866 48.1445 192.021 47.8008 191.448 47.1133C190.875 46.4115 190.589 45.416 190.589 44.127V42.4297C190.589 41.3555 190.882 40.4603 191.47 39.7441C192.057 39.028 192.909 38.6699 194.026 38.6699C194.542 38.6699 194.993 38.763 195.38 38.9492C195.781 39.1354 196.118 39.4076 196.39 39.7656C196.662 40.1237 196.869 40.5319 197.013 40.9902C197.156 41.4342 197.228 41.9141 197.228 42.4297V44.127ZM195.616 42.5371C195.616 41.8926 195.48 41.3841 195.208 41.0117C194.936 40.625 194.506 40.4316 193.919 40.4316C193.317 40.4316 192.873 40.6465 192.587 41.0762C192.3 41.4915 192.157 41.9785 192.157 42.5371V44.2344C192.157 44.8359 192.286 45.3659 192.544 45.8242C192.816 46.2682 193.274 46.4902 193.919 46.4902C194.478 46.4902 194.9 46.2969 195.187 45.9102C195.473 45.5091 195.616 44.9434 195.616 44.2129V42.5371ZM209.753 39.0137V44.3203C209.753 44.8646 209.696 45.3659 209.581 45.8242C209.481 46.2682 209.323 46.6693 209.108 47.0273C208.894 47.3997 208.593 47.679 208.206 47.8652C207.819 48.0371 207.347 48.123 206.788 48.123C206.344 48.123 205.972 48.0443 205.671 47.8867C205.384 47.7148 205.091 47.4355 204.79 47.0488C204.489 47.4355 204.188 47.7148 203.888 47.8867C203.587 48.0443 203.186 48.123 202.685 48.123C202.183 48.123 201.746 48.0299 201.374 47.8438C201.002 47.6576 200.694 47.3711 200.45 46.9844C200.192 46.612 200.006 46.2038 199.892 45.7598C199.777 45.3158 199.72 44.8359 199.72 44.3203V39.0137H201.353V44.3203C201.353 44.8359 201.46 45.3014 201.675 45.7168C201.904 46.1178 202.255 46.3184 202.728 46.3184C202.971 46.304 203.172 46.2324 203.329 46.1035C203.501 45.9746 203.63 45.7956 203.716 45.5664C203.787 45.3516 203.845 45.1367 203.888 44.9219C203.931 44.707 203.952 44.5065 203.952 44.3203V39.0137H205.585V44.3203C205.585 44.5065 205.599 44.707 205.628 44.9219C205.671 45.1224 205.728 45.3301 205.8 45.5449C205.857 45.7598 205.965 45.9316 206.122 46.0605C206.28 46.1895 206.487 46.2682 206.745 46.2969C207.203 46.2969 207.547 46.1107 207.776 45.7383C208.006 45.3516 208.12 44.8789 208.12 44.3203V39.0137H209.753ZM211.966 47.9082V38.8418H213.642V47.9082H211.966ZM211.966 34.7383H213.642V36.5645H211.966V34.7383ZM215.962 42.4727C215.962 41.2695 216.22 40.3385 216.735 39.6797C217.251 39.0065 218.01 38.6699 219.013 38.6699C220.03 38.6699 220.782 39.0065 221.269 39.6797C221.77 40.3385 222.021 41.2695 222.021 42.4727V47.9082H220.388V42.5156C220.388 42.2578 220.366 42.0143 220.323 41.7852C220.295 41.5417 220.252 41.3125 220.194 41.0977C220.123 40.8828 219.987 40.7253 219.786 40.625C219.6 40.5104 219.342 40.4531 219.013 40.4531C218.698 40.4531 218.44 40.5104 218.239 40.625C218.039 40.7396 217.896 40.9043 217.81 41.1191C217.724 41.3483 217.659 41.5775 217.616 41.8066C217.588 42.0358 217.573 42.2721 217.573 42.5156V47.9082H215.962V42.4727ZM230.765 38.8418V48.7891C230.765 50.1211 230.507 51.1309 229.991 51.8184C229.476 52.4915 228.702 52.8281 227.671 52.8281H226.64V51.1738H227.671C228.172 51.0879 228.552 50.8516 228.81 50.4648C229.067 50.0638 229.211 49.5195 229.239 48.832V47.9297H228.358C227.657 47.9297 227.055 47.7936 226.554 47.5215C226.067 47.2493 225.68 46.9414 225.394 46.5977C225.121 46.2539 224.885 45.7812 224.685 45.1797C224.498 44.5781 224.405 43.9479 224.405 43.2891C224.405 42.6875 224.491 42.1289 224.663 41.6133C224.849 41.0833 225.136 40.5964 225.522 40.1523C225.895 39.7227 226.296 39.4004 226.726 39.1855C227.17 38.9564 227.649 38.8418 228.165 38.8418H230.765ZM229.11 46.082V40.7324H228.358C228.015 40.7181 227.707 40.7754 227.435 40.9043C227.162 41.0332 226.919 41.2266 226.704 41.4844C226.475 41.7565 226.303 42.0501 226.188 42.3652C226.088 42.666 226.038 42.9883 226.038 43.332C226.038 44.1198 226.253 44.7786 226.683 45.3086C227.112 45.8242 227.678 46.082 228.38 46.082H229.11ZM243.462 46.0605V47.8652H242.688C241.528 47.8652 240.712 47.5573 240.239 46.9414C239.781 46.3112 239.552 45.3229 239.552 43.9766V35.6406H241.228V38.9062H243.226V40.668H241.228V43.8047C241.228 44.6354 241.342 45.2227 241.571 45.5664C241.8 45.8958 242.173 46.0605 242.688 46.0605H243.462ZM248.769 38.6914C249.8 38.6914 250.58 38.985 251.11 39.5723C251.64 40.1452 251.905 41.0117 251.905 42.1719V47.9082H250.272V42.1719C250.272 41.7135 250.158 41.3268 249.929 41.0117C249.7 40.6823 249.284 40.5176 248.683 40.5176C248.21 40.5749 247.866 40.7897 247.651 41.1621C247.451 41.5345 247.351 41.8711 247.351 42.1719V47.9082H245.739V34.7168H247.351V39.3574C247.565 39.1426 247.78 38.9922 247.995 38.9062C248.21 38.806 248.468 38.7344 248.769 38.6914ZM257.126 46.3613C257.298 46.4043 257.556 46.4258 257.899 46.4258C258.243 46.4258 258.673 46.4043 259.188 46.3613V48.0371C258.716 48.0944 258.308 48.1302 257.964 48.1445C257.62 48.1445 257.341 48.123 257.126 48.0801C255.966 48.0085 255.021 47.5573 254.29 46.7266C253.56 45.8958 253.194 44.6426 253.194 42.9668C253.194 41.6348 253.509 40.5892 254.14 39.8301C254.784 39.0566 255.644 38.6699 256.718 38.6699C257.276 38.6699 257.756 38.7773 258.157 38.9922C258.573 39.1927 258.916 39.4863 259.188 39.873C259.446 40.2741 259.647 40.7109 259.79 41.1836C259.933 41.6562 260.005 42.1504 260.005 42.666V44.1484H254.913C254.913 44.707 255.114 45.2083 255.515 45.6523C255.93 46.082 256.467 46.3184 257.126 46.3613ZM256.675 40.3027C256.331 40.3027 256.037 40.3743 255.794 40.5176C255.565 40.6608 255.386 40.8613 255.257 41.1191C255.128 41.3913 255.028 41.6491 254.956 41.8926C254.899 42.1217 254.87 42.3366 254.87 42.5371H258.415C258.415 42.3366 258.386 42.1217 258.329 41.8926C258.272 41.6491 258.186 41.3913 258.071 41.1191C257.957 40.8613 257.778 40.6608 257.534 40.5176C257.305 40.3743 257.019 40.3027 256.675 40.3027ZM262.003 47.9297V42.709C262.003 41.4199 262.268 40.4674 262.798 39.8516C263.342 39.2214 264.223 38.9062 265.44 38.9062H266.687V40.7109H265.483C264.753 40.7109 264.266 40.9186 264.022 41.334C263.779 41.735 263.657 42.1934 263.657 42.709V47.9297H262.003ZM272.53 46.3613C272.702 46.4043 272.96 46.4258 273.304 46.4258C273.647 46.4258 274.077 46.4043 274.593 46.3613V48.0371C274.12 48.0944 273.712 48.1302 273.368 48.1445C273.024 48.1445 272.745 48.123 272.53 48.0801C271.37 48.0085 270.425 47.5573 269.694 46.7266C268.964 45.8958 268.599 44.6426 268.599 42.9668C268.599 41.6348 268.914 40.5892 269.544 39.8301C270.188 39.0566 271.048 38.6699 272.122 38.6699C272.681 38.6699 273.16 38.7773 273.562 38.9922C273.977 39.1927 274.321 39.4863 274.593 39.873C274.851 40.2741 275.051 40.7109 275.194 41.1836C275.338 41.6562 275.409 42.1504 275.409 42.666V44.1484H270.317C270.317 44.707 270.518 45.2083 270.919 45.6523C271.334 46.082 271.871 46.3184 272.53 46.3613ZM272.079 40.3027C271.735 40.3027 271.442 40.3743 271.198 40.5176C270.969 40.6608 270.79 40.8613 270.661 41.1191C270.532 41.3913 270.432 41.6491 270.36 41.8926C270.303 42.1217 270.274 42.3366 270.274 42.5371H273.819C273.819 42.3366 273.791 42.1217 273.733 41.8926C273.676 41.6491 273.59 41.3913 273.476 41.1191C273.361 40.8613 273.182 40.6608 272.938 40.5176C272.709 40.3743 272.423 40.3027 272.079 40.3027ZM280.415 47.8223H278.589V45.9961H280.415V47.8223ZM285.528 47.8223H283.702V45.9961H285.528V47.8223Z" fill="#41718F"/>
<path d="M181.25 138.405C179.924 142.715 178.721 147.069 176.356 150.941C176.007 151.513 175.612 152.057 175.312 152.657" stroke="black" stroke-linecap="round"/>
<path d="M175.213 152.657C173.921 153.122 173.11 154.153 171.947 154.735" stroke="black" stroke-linecap="round"/>
<path d="M175.312 152.657C175.018 153.652 174.793 154.698 174.465 155.681C174.403 155.868 174.322 156.02 174.322 156.22" stroke="black" stroke-linecap="round"/>
<path d="M175.609 152.261C176.117 153.422 176.692 154.622 177.093 155.824" stroke="black" stroke-linecap="round"/>
<path d="M146.709 138.801C148.297 142.386 149.691 146.145 151.581 149.588C152.151 150.628 152.807 151.618 153.417 152.635C153.525 152.815 153.497 153.052 153.736 153.052" stroke="black" stroke-linecap="round"/>
<path d="M153.736 153.052C154.615 153.516 155.457 154.071 156.331 154.537C156.601 154.681 156.893 154.669 157.14 154.878C157.268 154.986 157.328 155.032 157.497 155.032" stroke="black" stroke-linecap="round"/>
<path d="M153.736 152.756C154.322 153.989 154.93 155.341 155.518 156.516" stroke="black" stroke-linecap="round"/>
<path d="M153.439 153.448C153.432 154.508 153.34 155.557 153.34 156.615" stroke="black" stroke-linecap="round"/>
<defs>
<filter id="filter0_b_46_3" x="-20" y="-20" width="360" height="134.5" filterUnits="userSpaceOnUse" color-interpolation-filters="sRGB">
<feFlood flood-opacity="0" result="BackgroundImageFix"/>
<feGaussianBlur in="BackgroundImageFix" stdDeviation="10"/>
<feComposite in2="SourceAlpha" operator="in" result="effect1_backgroundBlur_46_3"/>
<feBlend mode="normal" in="SourceGraphic" in2="effect1_backgroundBlur_46_3" result="shape"/>
</filter>
</defs>
</svg>
