<svg width="52" height="69" viewBox="0 0 52 69" fill="none" xmlns="http://www.w3.org/2000/svg">
<path d="M44 16.7332C44 25.2936 35.5651 31.7332 25.9001 31.7332C16.2352 31.7332 8.40015 24.7936 8.40015 16.2332C8.40015 7.67274 16.2352 0.733154 25.9001 0.733154C35.5651 0.733154 44 8.17274 44 16.7332Z" fill="white"/>
<ellipse cx="25.9001" cy="46.2332" rx="24.5" ry="21.5" fill="white"/>
<path d="M21.9779 28.8361C21.0665 28.8361 20.1408 28.4677 19.225 28.3825C18.5078 28.3158 17.6035 28.1306 16.9319 27.8722C16.4235 27.6767 15.899 27.5908 15.4011 27.362C14.6086 26.9979 13.8022 26.6192 13.0198 26.228" stroke="white" stroke-linecap="round"/>
<path d="M20.2771 28.8361C18.8441 28.8361 17.6734 28.4352 16.2831 28.0928C15.2892 27.848 14.3994 27.5527 13.5238 27.0092C11.686 25.8685 9.8597 24.3039 9.11405 22.2025C8.26935 19.822 8.22861 17.2075 8.25729 14.7122C8.27994 12.7411 8.97615 11.0602 10.1598 9.49606C10.5654 8.96002 10.958 8.47002 11.3819 7.94633C11.8098 7.41778 12.3825 6.78218 12.9001 6.33361C14.2606 5.1545 15.292 4.06706 16.9001 3.23324C17.7081 2.81428 18.5513 2.58353 19.4001 2.23324C19.806 2.06575 20.5292 1.96925 20.9001 1.73324C21.3995 1.41545 22.1269 1.56536 22.6962 1.45764C24.4194 1.13163 25.6764 1.23325 27.4001 1.23325C28.1843 1.23325 29.5167 1.56972 30.2999 1.62774C30.9798 1.6781 31.6253 2.03192 32.2717 2.07501C33.8288 2.17882 35.2645 3.34455 36.6059 4.02792C37.5995 4.5341 38.3826 5.55265 39.1636 6.33361C40.0301 7.20009 40.7348 8.10219 41.4315 9.10548C42.1774 10.1796 42.903 11.2238 43.2962 12.4821C43.549 13.2911 43.7262 13.977 43.9136 14.8067C44.1736 15.9584 44.1997 17.4885 43.9514 18.6558C43.6062 20.2781 42.9294 21.6558 42.1686 23.1412C41.5223 24.4029 40.723 26.0235 39.5542 26.9462C38.4221 27.84 37.1784 28.6866 35.6988 28.7227C34.3748 28.755 33.0583 28.8361 31.73 28.8361" stroke="black" stroke-linecap="round"/>
<path d="M14.4001 27.7332C13.5236 27.9042 13.1643 28.1413 12.3773 28.5841C11.8518 28.8796 11.4013 29.1365 10.9283 29.4912C10.1236 30.0948 9.20698 30.6147 8.44624 31.274C8.00924 31.6528 7.71089 32.1825 7.2934 32.5781C6.49946 33.3302 5.90019 34.3658 5.1956 35.2113C4.37675 36.194 3.71721 37.2823 2.9781 38.3171C1.32462 40.632 1 43.5294 1 46.2862C1 49.0056 1.43304 51.7228 2.69462 54.1671C3.13551 55.0214 3.60553 55.8426 4.06795 56.6807C4.70892 57.8425 5.6946 58.6488 6.44294 59.7298C7.90724 61.8449 9.87636 63.2567 12.0875 64.5049C12.6421 64.818 13.3602 64.9779 13.864 65.3491C14.0679 65.4994 14.2226 65.5419 14.4688 65.5759C14.667 65.6032 14.7324 65.8156 14.8971 65.9035C15.8243 66.398 17.0222 67.1705 18.0722 67.365C18.6313 67.4685 19.0711 67.6095 19.6093 67.7808C20.1538 67.954 20.8483 67.8438 21.4173 67.8438C22.774 67.8438 24.1137 67.8767 25.4554 67.617C27.9556 67.1331 30.2617 66.3696 32.8198 66.3696C33.8739 66.3696 34.588 66.1725 35.5853 65.9161C36.3478 65.72 37.1805 65.293 37.8469 64.8829C38.6125 64.4118 39.4428 63.9953 40.1778 63.4781C41.2373 62.7325 42.3786 62.1686 43.3718 61.3299C44.2471 60.5907 44.7713 59.5194 45.6649 58.8289C46.4911 58.1904 47.2995 57.1028 47.9075 56.2775C48.776 55.099 48.1954 54.94 49 53.7332C49.4706 53.0272 49.8042 51.5777 49.9297 50.7332C50.0744 49.76 50.7471 48.2324 50.4841 47.2332C50.2513 46.3483 51.0873 45.1576 50.8684 44.2577C50.7491 43.7671 50.5785 43.3478 50.4841 42.834C50.3579 42.1468 50.1588 41.3033 49.9297 40.6417C49.4995 39.3988 48.9631 38.1403 48.2603 37.0257C47.0801 35.1536 44.161 32.0228 42.4001 30.7332C40.6205 29.4298 39.4001 28.7332 38.4001 28.2332" stroke="black" stroke-linecap="round"/>
<path d="M13.4319 2.18908C12.5723 2.18908 11.8169 2.28272 10.9566 2.47178V2.86756C10.7621 3.0135 10.5322 3.07699 10.3535 3.24136C10.1347 3.44274 9.91906 3.63369 9.70333 3.83504C9.2911 4.21978 8.92616 4.61767 8.75471 5.1606C8.55875 5.78112 8.4414 6.29199 8.46886 6.95105C8.48659 7.3764 8.30688 7.86838 8.5 8.23315C8.02191 8.23315 8.40908 8.56637 8.50005 8.73315C8.54259 8.81113 8.94259 9.67096 9 9.73315C9.2289 9.98113 9.30372 9.75929 9.49618 10.0042C9.9029 10.5219 10.7243 10.6702 11.4341 10.6702C11.9616 10.6702 12.4846 10.4633 12.9921 10.3309C13.3683 10.2328 13.7253 10.0674 14.1104 10.0042C14.5662 9.92951 14.9399 9.40487 15.2537 9.10587C16.1908 8.21314 17.2819 7.08784 17.597 5.78254C17.7715 5.0597 17.3365 4.50178 16.84 4.05492C16.5074 3.75556 16.1891 3.36208 15.7877 3.15027C15.3783 2.9342 14.9748 2.5818 14.5501 2.41524C14.3573 2.33963 14.2272 2.19495 14.0098 2.18908C13.8175 2.18388 13.6243 2.18908 13.4319 2.18908Z" fill="white"/>
<path d="M39.2017 1.96295C37.8105 1.96295 36.4668 2.60173 35.5517 3.65917L35 3.73315C35 3.73315 34.6168 3.82528 34.5905 4.33765C34.5524 5.0809 34.6974 5.91788 35.1559 6.51132C36.1 7.73299 37.2008 8.87232 38.2594 9.99799C38.8715 10.6489 39.5268 11.5571 40.3828 11.8952C40.8045 12.0618 41.478 12.095 41.8843 11.8513C43.1363 11.1 43.897 9.77703 44.6296 8.57819C45.2297 7.59626 44.9771 6.62824 44.4977 5.6695C44.085 4.84408 43.5195 4.17118 42.9711 3.433C42.549 2.8648 41.9608 2.2588 41.3189 1.93782C40.7148 1.63581 39.8279 1.96295 39.2017 1.96295Z" fill="white"/>
<path d="M10.1484 10.4312C9.4002 10.4312 8.72021 8.83848 8.37934 8.30824C7.97534 7.67979 8.12661 6.88189 8.12661 6.16285C8.12661 5.1443 8.64288 4.21644 9.33971 3.50077C10.3694 2.44328 11.812 1.83838 13.2767 1.83838C14.7164 1.83838 15.519 2.65981 16.5172 3.65803" stroke="black" stroke-linecap="round"/>
<path d="M35.219 3.05142C35.7267 2.9021 36.2047 2.54955 36.6343 2.24269C36.8385 2.09681 37.0941 2.11482 37.3195 1.98434C37.9184 1.63757 38.8809 1.54021 39.5715 1.43395C39.9858 1.37023 40.1949 1.27162 40.5712 1.53505C41.2662 2.02155 42.0226 2.37335 42.6998 2.9054C43.2073 3.30415 43.6916 4.07972 44.0645 4.61834C44.5017 5.24985 44.6375 5.88695 44.8452 6.63455C44.954 7.02636 45.0724 7.96507 44.9013 8.36434C44.4559 9.40353 43.7123 10.1255 43.1041 11.0377" stroke="black" stroke-linecap="round"/>
<path d="M25.8223 35.9281C25.8607 35.9203 25.6461 35.7332 25.5545 35.7332C25.2144 35.7332 25.0603 36.1592 24.8105 36.4117C24.4851 36.7405 24.3166 37.5403 24.4414 38.0359C24.6537 38.8784 25.4353 38.7216 25.9949 38.7216C26.5728 38.7216 27.1325 38.4131 27.3461 37.7471C27.7011 36.6399 26.2215 35.1731 25.4354 35.9569C24.9496 36.4414 24.3263 37.7002 25.1825 38.0972C25.8451 38.4045 26.8937 38.2981 26.8937 37.1588C26.8937 36.4435 26.2539 36.3708 25.7807 36.4983C25.3605 36.6115 25.2714 37.319 25.1795 37.7471C25.0971 38.1312 25.2165 38.3706 25.5991 38.3138C26.0097 38.2528 26.8342 37.8859 26.8342 37.2635C26.8342 36.9039 26.5434 36.6868 26.3342 36.4983C26.1135 36.2995 25.8051 36.1902 25.6051 36.5055C25.4263 36.7874 25.3113 37.1507 25.2896 37.5053C25.2781 37.6939 25.3458 37.6783 25.4354 37.8121C25.6596 38.1467 26.1913 37.8638 26.3223 37.5233C26.3817 37.3688 26.3166 36.768 26.4116 36.8448C26.5719 36.9744 26.7851 36.678 26.7211 36.4839C26.5309 35.9072 25.814 36.53 25.8223 36.982C25.8254 37.1523 25.9062 37.3074 26.0068 37.4223C26.2002 37.643 26.1437 37.1762 26.1437 37.0469C26.1437 36.6367 25.6692 37.117 25.5872 37.2202C25.3756 37.4863 25.3456 37.5905 25.608 37.8482C25.8937 38.1286 26.3296 37.2274 26.6288 37.2274C26.94 37.2274 27.0626 37.2373 27.2687 37.4873" stroke="black" stroke-linecap="round"/>
<path d="M26.7588 46.4749C26.1037 45.752 25.8348 45.4787 24.9913 46.0127C24.499 46.3244 24.4224 46.5085 24.5247 47.126C24.6141 47.6648 24.7307 48.4141 25.2459 48.6291C26.0701 48.9731 26.6562 48.1048 27.1688 47.4877C27.7532 46.7842 26.6653 46.2741 26.2533 46.0087C25.6639 45.6289 24.4746 46.4223 24.4046 47.1983C24.3468 47.8383 24.8644 48.564 25.4085 48.7014C26.0808 48.8713 27.1162 48.3417 27.2643 47.5279C27.3287 47.1735 27.5247 46.6956 27.2819 46.3865C27.0353 46.0724 26.89 45.9037 26.5043 45.8399C25.6728 45.7024 24.7474 46.2054 24.7899 47.2666C24.8331 48.3494 26.0958 48.1083 26.4866 47.3751C26.6317 47.1028 26.6528 46.4237 26.3911 46.2177C25.9656 45.8827 25.5982 46.773 25.564 47.1099C25.4975 47.7654 25.8239 47.6265 26.0447 47.1662C26.2022 46.8378 25.6722 46.1286 25.564 46.3623C25.3895 46.7392 25.6534 47.3432 25.9705 47.4796C26.3459 47.6411 26.7363 47.3722 26.8507 46.9451C27.0676 46.1348 26.4196 45.9705 25.8998 46.3021C25.685 46.439 25.2623 46.6436 25.2953 46.9813C25.3169 47.2023 25.6996 47.6189 25.8963 47.5681C26.3816 47.4426 26.18 47.0466 25.8397 46.8808C25.5014 46.716 25.1993 46.9525 25.0514 47.3028C24.9376 47.5724 25.2727 47.7083 25.4579 47.761C25.7131 47.8335 25.9145 47.6228 26.1225 47.4877" stroke="black" stroke-linecap="round"/>
</svg>
