<svg width="52" height="81" viewBox="0 0 52 81" fill="none" xmlns="http://www.w3.org/2000/svg">
<path d="M44 28.7332C44 37.2936 35.5651 43.7332 25.9001 43.7332C16.2352 43.7332 8.40015 36.7936 8.40015 28.2332C8.40015 19.6727 16.2352 12.7332 25.9001 12.7332C35.5651 12.7332 44 20.1727 44 28.7332Z" fill="white"/>
<ellipse cx="25.9001" cy="58.2332" rx="24.5" ry="21.5" fill="white"/>
<path d="M21.9779 40.8361C21.0665 40.8361 20.1408 40.4677 19.225 40.3825C18.5078 40.3158 17.6035 40.1306 16.9319 39.8722C16.4235 39.6767 15.899 39.5908 15.4011 39.362C14.6086 38.9979 13.8022 38.6192 13.0198 38.228" stroke="white" stroke-linecap="round"/>
<path d="M20.2771 40.8361C18.8441 40.8361 17.6734 40.4352 16.2831 40.0928C15.2892 39.848 14.3994 39.5527 13.5238 39.0092C11.686 37.8685 9.8597 36.3039 9.11405 34.2025C8.26935 31.822 8.22861 29.2075 8.25729 26.7122C8.27994 24.7411 8.97615 23.0602 10.1598 21.4961C10.5654 20.96 10.958 20.47 11.3819 19.9463C11.8098 19.4178 12.3825 18.7822 12.9001 18.3336C14.2606 17.1545 15.292 16.0671 16.9001 15.2332C17.7081 14.8143 18.5513 14.5835 19.4001 14.2332C19.806 14.0657 20.5292 13.9693 20.9001 13.7332C21.3995 13.4154 22.1269 13.5654 22.6962 13.4576C24.4194 13.1316 25.6764 13.2332 27.4001 13.2332C28.1843 13.2332 29.5167 13.5697 30.2999 13.6277C30.9798 13.6781 31.6253 14.0319 32.2717 14.075C33.8288 14.1788 35.2645 15.3445 36.6059 16.0279C37.5995 16.5341 38.3826 17.5527 39.1636 18.3336C40.0301 19.2001 40.7348 20.1022 41.4315 21.1055C42.1774 22.1796 42.903 23.2238 43.2962 24.4821C43.549 25.2911 43.7262 25.977 43.9136 26.8067C44.1736 27.9584 44.1997 29.4885 43.9514 30.6558C43.6062 32.2781 42.9294 33.6558 42.1686 35.1412C41.5223 36.4029 40.723 38.0235 39.5542 38.9462C38.4221 39.84 37.1784 40.6866 35.6988 40.7227C34.3748 40.755 33.0583 40.8361 31.73 40.8361" stroke="black" stroke-linecap="round"/>
<path d="M14.4001 39.7332C13.5236 39.9042 13.1643 40.1413 12.3773 40.5841C11.8518 40.8796 11.4013 41.1365 10.9283 41.4912C10.1236 42.0948 9.20698 42.6147 8.44624 43.274C8.00924 43.6528 7.71089 44.1825 7.2934 44.5781C6.49946 45.3302 5.90019 46.3658 5.1956 47.2113C4.37675 48.194 3.71721 49.2823 2.9781 50.3171C1.32462 52.632 1 55.5294 1 58.2862C1 61.0056 1.43304 63.7228 2.69462 66.1671C3.13551 67.0214 3.60553 67.8426 4.06795 68.6807C4.70892 69.8425 5.6946 70.6488 6.44294 71.7298C7.90724 73.8449 9.87636 75.2567 12.0875 76.5049C12.6421 76.818 13.3602 76.9779 13.864 77.3491C14.0679 77.4994 14.2226 77.5419 14.4688 77.5759C14.667 77.6032 14.7324 77.8156 14.8971 77.9035C15.8243 78.398 17.0222 79.1705 18.0722 79.365C18.6313 79.4685 19.0711 79.6095 19.6093 79.7808C20.1538 79.954 20.8483 79.8438 21.4173 79.8438C22.774 79.8438 24.1137 79.8767 25.4554 79.617C27.9556 79.1331 30.2617 78.3696 32.8198 78.3696C33.8739 78.3696 34.588 78.1725 35.5853 77.9161C36.3478 77.72 37.1805 77.293 37.8469 76.8829C38.6125 76.4118 39.4428 75.9953 40.1778 75.4781C41.2373 74.7325 42.3786 74.1686 43.3718 73.3299C44.2471 72.5907 44.7713 71.5194 45.6649 70.8289C46.4911 70.1904 47.2995 69.1028 47.9075 68.2775C48.776 67.099 48.1954 66.94 49 65.7332C49.4706 65.0272 49.8042 63.5777 49.9297 62.7332C50.0744 61.76 50.7471 60.2324 50.4841 59.2332C50.2513 58.3483 51.0873 57.1576 50.8684 56.2577C50.7491 55.7671 50.5785 55.3478 50.4841 54.834C50.3579 54.1468 50.1588 53.3033 49.9297 52.6417C49.4995 51.3988 48.9631 50.1403 48.2603 49.0257C47.0801 47.1536 44.161 44.0228 42.4001 42.7332C40.6205 41.4298 39.4001 40.7332 38.4001 40.2332" stroke="black" stroke-linecap="round"/>
<path d="M19.3758 12.1142C19.5532 12.7984 19.7418 13.4374 19.6833 14.1392L20 15.2332L26.5 14.2332L25.5 13.2332C25.5 11.7982 25.9297 10.0833 25.9297 8.64832C25.9297 7.42013 26.0223 6.14111 25.8419 4.92332C25.6925 3.91511 25.4409 2.55464 24.6822 1.82207C24.3408 1.49245 23.8249 1.40961 23.3819 1.28616C23.1598 1.22424 22.8052 1.20177 22.6088 1.34766C21.7083 2.01661 20.9558 3.12078 20.3949 4.07113C19.9001 4.90957 19.6473 5.76649 19.4812 6.71554C19.3481 7.47619 19.1298 8.22442 19.1298 8.99974C19.1298 10.0322 19.1144 11.1058 19.3758 12.1142Z" fill="white"/>
<path d="M27.6658 3.33251C27.1202 6.60559 27.7798 9.94059 27.7798 13.2224V15.066L33.5 15.7332H34.5C34.5 13.8904 34.6795 11.3174 34.3834 9.51108C34.3109 9.0689 34.064 8.69582 34.0361 8.23597C34.0173 7.92633 33.9965 7.67898 33.891 7.3859C33.6752 6.78643 33.5436 6.1464 33.4193 5.52508C33.2898 4.87785 32.9091 4.15483 32.4966 3.63315C32.1781 3.23033 31.9518 2.72457 31.6051 2.35804C30.9337 1.6483 30.6307 1 29.594 1C28.5677 1 27.809 2.47297 27.6658 3.33251Z" fill="white"/>
<path d="M19.6833 14.1392C19.7418 13.4374 19.5532 12.7984 19.3758 12.1142C19.1144 11.1058 19.1298 10.0322 19.1298 8.99974C19.1298 8.22442 19.3481 7.47619 19.4812 6.71554C19.6473 5.76649 19.9001 4.90957 20.3949 4.07113C20.9558 3.12078 21.7083 2.01661 22.6088 1.34766C22.8052 1.20177 23.1598 1.22424 23.3819 1.28616C23.8249 1.40961 24.3408 1.49245 24.6822 1.82207C25.4409 2.55464 25.6925 3.91511 25.8419 4.92332C26.0223 6.14111 25.9297 7.42013 25.9297 8.64832C25.9297 10.0833 25.9297 11.5182 25.9297 12.9532" stroke="black" stroke-linecap="round"/>
<path d="M27.7798 13.2224C27.7798 9.94059 27.1202 6.60559 27.6658 3.33251C27.809 2.47297 28.5677 1 29.594 1C30.6307 1 30.9337 1.6483 31.6051 2.35804C31.9518 2.72457 32.1781 3.23033 32.4966 3.63315C32.9091 4.15483 33.2898 4.87785 33.4193 5.52508C33.5436 6.1464 33.6752 6.78643 33.891 7.3859C33.9965 7.67898 34.0173 7.92633 34.0361 8.23597C34.064 8.69581 34.3109 9.0689 34.3834 9.51108C34.6795 11.3174 34.7773 13.0591 34.7773 14.9018" stroke="black" stroke-linecap="round"/>
<path d="M25.8223 47.9281C25.8607 47.9203 25.6461 47.7332 25.5545 47.7332C25.2144 47.7332 25.0603 48.1592 24.8105 48.4117C24.4851 48.7405 24.3166 49.5403 24.4414 50.0359C24.6537 50.8784 25.4353 50.7216 25.9949 50.7216C26.5728 50.7216 27.1325 50.4131 27.3461 49.7471C27.7011 48.6399 26.2215 47.1731 25.4354 47.9569C24.9496 48.4414 24.3263 49.7002 25.1825 50.0972C25.8451 50.4045 26.8937 50.2981 26.8937 49.1588C26.8937 48.4435 26.2539 48.3708 25.7807 48.4983C25.3605 48.6115 25.2714 49.319 25.1795 49.7471C25.0971 50.1312 25.2165 50.3706 25.5991 50.3138C26.0097 50.2528 26.8342 49.8859 26.8342 49.2635C26.8342 48.9039 26.5434 48.6868 26.3342 48.4983C26.1135 48.2995 25.8051 48.1902 25.6051 48.5055C25.4263 48.7874 25.3113 49.1507 25.2896 49.5053C25.2781 49.6939 25.3458 49.6783 25.4354 49.8121C25.6596 50.1467 26.1913 49.8638 26.3223 49.5233C26.3817 49.3688 26.3166 48.768 26.4116 48.8448C26.5719 48.9744 26.7851 48.678 26.7211 48.4839C26.5309 47.9072 25.814 48.53 25.8223 48.982C25.8254 49.1523 25.9062 49.3074 26.0068 49.4223C26.2002 49.643 26.1437 49.1762 26.1437 49.0469C26.1437 48.6367 25.6692 49.117 25.5872 49.2202C25.3756 49.4863 25.3456 49.5905 25.608 49.8482C25.8937 50.1286 26.3296 49.2274 26.6288 49.2274C26.94 49.2274 27.0626 49.2373 27.2687 49.4873" stroke="black" stroke-linecap="round"/>
<path d="M26.7588 58.4749C26.1037 57.752 25.8348 57.4787 24.9913 58.0127C24.499 58.3244 24.4224 58.5085 24.5247 59.126C24.6141 59.6648 24.7307 60.4141 25.2459 60.6291C26.0701 60.9731 26.6562 60.1048 27.1688 59.4877C27.7532 58.7842 26.6653 58.2741 26.2533 58.0087C25.6639 57.6289 24.4746 58.4223 24.4046 59.1983C24.3468 59.8383 24.8644 60.564 25.4085 60.7014C26.0808 60.8713 27.1162 60.3417 27.2643 59.5279C27.3287 59.1735 27.5247 58.6956 27.2819 58.3865C27.0353 58.0724 26.89 57.9037 26.5043 57.8399C25.6728 57.7024 24.7474 58.2054 24.7899 59.2666C24.8331 60.3494 26.0958 60.1083 26.4866 59.3751C26.6317 59.1028 26.6528 58.4237 26.3911 58.2177C25.9656 57.8827 25.5982 58.773 25.564 59.1099C25.4975 59.7654 25.8239 59.6265 26.0447 59.1662C26.2022 58.8378 25.6722 58.1286 25.564 58.3623C25.3895 58.7392 25.6534 59.3432 25.9705 59.4796C26.3459 59.6411 26.7363 59.3722 26.8507 58.9451C27.0676 58.1348 26.4196 57.9705 25.8998 58.3021C25.685 58.439 25.2623 58.6436 25.2953 58.9813C25.3169 59.2023 25.6996 59.6189 25.8963 59.5681C26.3816 59.4426 26.18 59.0466 25.8397 58.8808C25.5014 58.716 25.1993 58.9525 25.0514 59.3028C24.9376 59.5724 25.2727 59.7083 25.4579 59.761C25.7131 59.8335 25.9145 59.6228 26.1225 59.4877" stroke="black" stroke-linecap="round"/>
</svg>
