<svg width="52" height="73" viewBox="0 0 52 73" fill="none" xmlns="http://www.w3.org/2000/svg">
<path d="M44 20.7332C44 29.2936 35.5651 35.7332 25.9001 35.7332C16.2352 35.7332 8.40015 28.7936 8.40015 20.2332C8.40015 11.6727 16.2352 4.73315 25.9001 4.73315C35.5651 4.73315 44 12.1727 44 20.7332Z" fill="white"/>
<ellipse cx="25.9001" cy="50.2332" rx="24.5" ry="21.5" fill="white"/>
<path d="M21.9779 32.8361C21.0665 32.8361 20.1408 32.4677 19.225 32.3825C18.5078 32.3158 17.6035 32.1306 16.9319 31.8722C16.4235 31.6767 15.899 31.5908 15.4011 31.362C14.6086 30.9979 13.8022 30.6192 13.0198 30.228" stroke="white" stroke-linecap="round"/>
<path d="M20.2771 32.8361C18.8441 32.8361 17.6734 32.4352 16.2831 32.0928C15.2892 31.848 14.3994 31.5527 13.5238 31.0092C11.686 29.8685 9.8597 28.3039 9.11405 26.2025C8.26935 23.822 8.22861 21.2075 8.25729 18.7122C8.27994 16.7411 8.97615 15.0602 10.1598 13.4961C10.5654 12.96 10.958 12.47 11.3819 11.9463C11.8098 11.4178 12.3825 10.7822 12.9001 10.3336C14.2606 9.1545 15.292 8.06706 16.9001 7.23324C17.7081 6.81428 18.5513 6.58353 19.4001 6.23324C19.806 6.06575 20.5292 5.96925 20.9001 5.73324C21.3995 5.41545 22.1269 5.56536 22.6962 5.45764C24.4194 5.13163 25.6764 5.23325 27.4001 5.23325C28.1843 5.23325 29.5167 5.56972 30.2999 5.62774C30.9798 5.6781 31.6253 6.03192 32.2717 6.07501C33.8288 6.17882 35.2645 7.34455 36.6059 8.02792C37.5995 8.5341 38.3826 9.55265 39.1636 10.3336C40.0301 11.2001 40.7348 12.1022 41.4315 13.1055C42.1774 14.1796 42.903 15.2238 43.2962 16.4821C43.549 17.2911 43.7262 17.977 43.9136 18.8067C44.1736 19.9584 44.1997 21.4885 43.9514 22.6558C43.6062 24.2781 42.9294 25.6558 42.1686 27.1412C41.5223 28.4029 40.723 30.0235 39.5542 30.9462C38.4221 31.84 37.1784 32.6866 35.6988 32.7227C34.3748 32.755 33.0583 32.8361 31.73 32.8361" stroke="black" stroke-linecap="round"/>
<path d="M14.4001 31.7332C13.5236 31.9042 13.1643 32.1413 12.3773 32.5841C11.8518 32.8796 11.4013 33.1365 10.9283 33.4912C10.1236 34.0948 9.20698 34.6147 8.44624 35.274C8.00924 35.6528 7.71089 36.1825 7.2934 36.5781C6.49946 37.3302 5.90019 38.3658 5.1956 39.2113C4.37675 40.194 3.71721 41.2823 2.9781 42.3171C1.32462 44.632 1 47.5294 1 50.2862C1 53.0056 1.43304 55.7228 2.69462 58.1671C3.13551 59.0214 3.60553 59.8426 4.06795 60.6807C4.70892 61.8425 5.6946 62.6488 6.44294 63.7298C7.90724 65.8449 9.87636 67.2567 12.0875 68.5049C12.6421 68.818 13.3602 68.9779 13.864 69.3491C14.0679 69.4994 14.2226 69.5419 14.4688 69.5759C14.667 69.6032 14.7324 69.8156 14.8971 69.9035C15.8243 70.398 17.0222 71.1705 18.0722 71.365C18.6313 71.4685 19.0711 71.6095 19.6093 71.7808C20.1538 71.954 20.8483 71.8438 21.4173 71.8438C22.774 71.8438 24.1137 71.8767 25.4554 71.617C27.9556 71.1331 30.2617 70.3696 32.8198 70.3696C33.8739 70.3696 34.588 70.1725 35.5853 69.9161C36.3478 69.72 37.1805 69.293 37.8469 68.8829C38.6125 68.4118 39.4428 67.9953 40.1778 67.4781C41.2373 66.7325 42.3786 66.1686 43.3718 65.3299C44.2471 64.5907 44.7713 63.5194 45.6649 62.8289C46.4911 62.1904 47.2995 61.1028 47.9075 60.2775C48.776 59.099 48.1954 58.94 49 57.7332C49.4706 57.0272 49.8042 55.5777 49.9297 54.7332C50.0744 53.76 50.7471 52.2324 50.4841 51.2332C50.2513 50.3483 51.0873 49.1576 50.8684 48.2577C50.7491 47.7671 50.5785 47.3478 50.4841 46.834C50.3579 46.1468 50.1588 45.3033 49.9297 44.6417C49.4995 43.3988 48.9631 42.1403 48.2603 41.0257C47.0801 39.1536 44.161 36.0228 42.4001 34.7332C40.6205 33.4298 39.4001 32.7332 38.4001 32.2332" stroke="black" stroke-linecap="round"/>
<path d="M25.8223 39.9281C25.8607 39.9203 25.6461 39.7332 25.5545 39.7332C25.2144 39.7332 25.0603 40.1592 24.8105 40.4117C24.4851 40.7405 24.3166 41.5403 24.4414 42.0359C24.6537 42.8784 25.4353 42.7216 25.9949 42.7216C26.5728 42.7216 27.1325 42.4131 27.3461 41.7471C27.7011 40.6399 26.2215 39.1731 25.4354 39.9569C24.9496 40.4414 24.3263 41.7002 25.1825 42.0972C25.8451 42.4045 26.8937 42.2981 26.8937 41.1588C26.8937 40.4435 26.2539 40.3708 25.7807 40.4983C25.3605 40.6115 25.2714 41.319 25.1795 41.7471C25.0971 42.1312 25.2165 42.3706 25.5991 42.3138C26.0097 42.2528 26.8342 41.8859 26.8342 41.2635C26.8342 40.9039 26.5434 40.6868 26.3342 40.4983C26.1135 40.2995 25.8051 40.1902 25.6051 40.5055C25.4263 40.7874 25.3113 41.1507 25.2896 41.5053C25.2781 41.6939 25.3458 41.6783 25.4354 41.8121C25.6596 42.1467 26.1913 41.8638 26.3223 41.5233C26.3817 41.3688 26.3166 40.768 26.4116 40.8448C26.5719 40.9744 26.7851 40.678 26.7211 40.4839C26.5309 39.9072 25.814 40.53 25.8223 40.982C25.8254 41.1523 25.9062 41.3074 26.0068 41.4223C26.2002 41.643 26.1437 41.1762 26.1437 41.0469C26.1437 40.6367 25.6692 41.117 25.5872 41.2202C25.3756 41.4863 25.3456 41.5905 25.608 41.8482C25.8937 42.1286 26.3296 41.2274 26.6288 41.2274C26.94 41.2274 27.0626 41.2373 27.2687 41.4873" stroke="black" stroke-linecap="round"/>
<path d="M26.7588 50.4749C26.1037 49.752 25.8348 49.4787 24.9913 50.0127C24.499 50.3244 24.4224 50.5085 24.5247 51.126C24.6141 51.6648 24.7307 52.4141 25.2459 52.6291C26.0701 52.9731 26.6562 52.1048 27.1688 51.4877C27.7532 50.7842 26.6653 50.2741 26.2533 50.0087C25.6639 49.6289 24.4746 50.4223 24.4046 51.1983C24.3468 51.8383 24.8644 52.564 25.4085 52.7014C26.0808 52.8713 27.1162 52.3417 27.2643 51.5279C27.3287 51.1735 27.5247 50.6956 27.2819 50.3865C27.0353 50.0724 26.89 49.9037 26.5043 49.8399C25.6728 49.7024 24.7474 50.2054 24.7899 51.2666C24.8331 52.3494 26.0958 52.1083 26.4866 51.3751C26.6317 51.1028 26.6528 50.4237 26.3911 50.2177C25.9656 49.8827 25.5982 50.773 25.564 51.1099C25.4975 51.7654 25.8239 51.6265 26.0447 51.1662C26.2022 50.8378 25.6722 50.1286 25.564 50.3623C25.3895 50.7392 25.6534 51.3432 25.9705 51.4796C26.3459 51.6411 26.7363 51.3722 26.8507 50.9451C27.0676 50.1348 26.4196 49.9705 25.8998 50.3021C25.685 50.439 25.2623 50.6436 25.2953 50.9813C25.3169 51.2023 25.6996 51.6189 25.8963 51.5681C26.3816 51.4426 26.18 51.0466 25.8397 50.8808C25.5014 50.716 25.1993 50.9525 25.0514 51.3028C24.9376 51.5724 25.2727 51.7083 25.4579 51.761C25.7131 51.8335 25.9145 51.6228 26.1225 51.4877" stroke="black" stroke-linecap="round"/>
<path d="M12.3077 5.9133C12.2882 7.53225 12.3077 9.15253 12.3077 10.7716V13.2332L16 12.2332L20.3872 10.7716L21.8755 5.70068C21.6113 5.38367 21.3599 4.91487 21.1632 4.55255C20.9809 4.21668 20.6263 3.99577 20.3872 3.69145C19.4514 2.50044 18.0402 1.10815 16.4219 1.10815C15.1813 1.10815 14.2384 1.90691 13.3708 2.68152C12.465 3.49028 12.3214 4.77778 12.3077 5.9133Z" fill="white"/>
<path d="M36.0145 2.29872C34.1956 3.00149 32.8576 4.46719 31.1562 5.31788L30 9.23315L39 15.7332L41 16.2332L41.7765 12.5894C41.7765 11.2094 41.931 9.70594 41.5426 8.37425C40.9884 6.47406 41.1327 4.52469 39.5334 3.11729C38.9464 2.60077 38.3947 2.39061 37.7049 2.06484C37.2007 1.82678 36.4993 2.11142 36.0145 2.29872Z" fill="white"/>
<path d="M12.3077 10.7716C12.3077 9.15253 12.2882 7.53225 12.3077 5.9133C12.3214 4.77778 12.465 3.49028 13.3708 2.68152C14.2384 1.90691 15.1813 1.10815 16.4219 1.10815C18.0402 1.10815 19.4514 2.50044 20.3872 3.69145C20.6263 3.99577 20.9809 4.21668 21.1632 4.55255C21.3599 4.91487 21.6113 5.38367 21.8755 5.70068" stroke="black" stroke-linecap="round"/>
<path d="M31 5.73315C32.7014 4.88246 34.1956 3.00149 36.0145 2.29872C36.4993 2.11142 37.2007 1.82678 37.7049 2.06484C38.3947 2.39061 38.9464 2.60077 39.5334 3.11729C41.1327 4.52469 40.9884 6.47406 41.5426 8.37425C41.931 9.70594 41.5426 12.3532 41.5426 13.7332" stroke="black" stroke-linecap="round"/>
</svg>
