<svg width="15" height="4" viewBox="0 0 15 4" fill="none" xmlns="http://www.w3.org/2000/svg">
<path d="M2.00264 2.00449C1.72093 1.96927 1.78756 1.70968 1.38494 1.84388C0.833881 2.02757 1.02683 2.21946 1.33552 2.511C1.62476 2.78417 1.77945 3.12035 2.1756 2.89398C2.72703 2.57888 2.64734 2.00449 1.99647 2.00449C1.85604 2.00449 1.23258 1.91553 1.13786 2.02919C0.92086 2.28959 1.07456 2.7635 1.33552 2.89398" stroke="black" stroke-linecap="round"/>
<path d="M13.2324 1.55969C12.6274 1.18737 11.3778 1.81098 12.2317 2.31329C12.4061 2.41585 12.5879 2.57505 12.7629 2.69626C12.9124 2.79976 13.651 2.79555 13.6771 2.56037C13.713 2.23755 13.0191 1.48448 13.0594 1.80677C13.0895 2.04735 13.6771 2.48747 13.6771 2.00444" stroke="black" stroke-linecap="round"/>
</svg>
