<svg width="15" height="4" viewBox="0 0 15 4" fill="none" xmlns="http://www.w3.org/2000/svg">
<path d="M2.00289 2.00473C1.72117 1.96951 1.7878 1.70992 1.38518 1.84413C0.834125 2.02781 1.02707 2.2197 1.33577 2.51125C1.62501 2.78442 1.77969 3.1206 2.17584 2.89422C2.72727 2.57912 2.64759 2.00473 1.99671 2.00473C1.85628 2.00473 1.23282 1.91577 1.1381 2.02944C0.921104 2.28984 1.07481 2.76374 1.33577 2.89422" stroke="black" stroke-linecap="round"/>
<path d="M13.2326 1.55993C12.6276 1.18762 11.378 1.81123 12.232 2.31353C12.4063 2.41609 12.5881 2.5753 12.7632 2.69651C12.9127 2.8 13.6513 2.79579 13.6774 2.56061C13.7133 2.2378 13.0194 1.48472 13.0597 1.80702C13.0898 2.04759 13.6774 2.48771 13.6774 2.00468" stroke="black" stroke-linecap="round"/>
<path d="M1.17897 1.55016C0.993174 1.42994 0.986489 1.06388 1.02327 0.861584C1.06839 0.613427 1.59667 0.493858 1.73377 0.70808C1.88268 0.940746 1.86911 1.21997 1.98596 1.45367C2.08934 1.66044 2.08268 1.2166 2.0956 1.20368C2.12564 1.17364 2.49637 1.5855 2.64822 1.4449C2.74596 1.35439 2.67941 1.27712 2.72277 1.17956C2.77981 1.05122 2.97827 1.34957 2.9925 1.39227C3.05096 1.56764 3.05016 1.76228 2.85435 1.8462C2.61442 1.94903 2.68922 2.24158 2.67892 2.45802C2.67693 2.49982 2.66118 2.69505 2.63067 2.72556C2.59433 2.7619 2.65324 2.45798 2.67014 2.41855C2.69518 2.36013 2.67892 2.27339 2.67892 2.21022C2.67892 2.12779 2.61225 2.36316 2.5605 2.42732C2.47991 2.52726 2.40956 2.6367 2.32367 2.73214C2.21932 2.84808 1.9551 3.0438 1.7886 2.90757C1.69186 2.82842 1.66301 2.74979 1.60439 2.64661C1.52216 2.50188 1.52472 2.30274 1.4158 2.18172C1.28781 2.0395 1.24372 1.95765 1.04739 1.88348C0.982246 1.85887 0.653021 1.79456 0.674598 1.87471C0.760376 2.19331 1.0204 2.42226 1.23598 2.63784C1.27727 2.67913 1.2768 2.82963 1.28861 2.88345C1.31325 2.9957 1.42177 3.06096 1.53422 3.08081C1.72189 3.11393 2.09376 3.13839 2.20525 2.97116" stroke="black" stroke-linecap="round"/>
<path d="M1.92896 1.31337C1.93884 1.06625 2.4421 0.59867 2.4421 1.03706" stroke="black" stroke-linecap="round"/>
<path d="M12.2708 1.86596C12.2611 1.78814 12.1752 1.84321 12.1437 1.87473C12.0602 1.95819 12.0365 2.0751 12.034 2.19051C12.0308 2.33676 11.9829 2.86396 12.113 2.94049C12.1652 2.97125 12.2039 3.06469 12.2577 3.08083C12.38 3.11754 12.6294 3.11928 12.7533 3.08083C12.9099 3.03224 13.0295 2.92299 13.1392 2.8133C13.2668 2.68573 13.4083 2.90794 13.4769 3.00189C13.5623 3.11875 13.7671 3.11674 13.8892 3.05013C14.1072 2.93123 13.9564 2.19779 13.8695 2.02385C13.7137 1.71238 13.9353 1.15546 13.3914 1.15546C13.2146 1.15546 13.1681 1.15378 13.0406 1.05459C12.914 0.956123 12.8099 0.671008 12.6217 0.765122C12.3338 0.909058 12.3498 1.06821 12.3498 1.37256C12.3498 1.64387 11.9845 1.57058 11.8345 1.73C11.6849 1.88895 11.6346 1.83501 11.6809 2.04359C11.7131 2.18834 11.8616 2.26069 11.9945 2.26069" stroke="black" stroke-linecap="round"/>
<circle cx="1.5" cy="1.5" r="0.5" fill="white"/>
<circle cx="2.25" cy="2.25" r="0.25" fill="white"/>
<circle cx="12.6001" cy="1.5" r="0.5" fill="white"/>
<circle cx="13.3501" cy="2.25" r="0.25" fill="white"/>
</svg>
