<svg width="19" height="5" viewBox="0 0 19 5" fill="none" xmlns="http://www.w3.org/2000/svg">
<path d="M1.43236 1.66593C2.62895 1.66593 3.81755 1.57041 5.01466 1.57041C5.19058 1.57041 5.35026 1.55014 5.52414 1.5253C5.65624 1.50642 5.26593 1.59515 5.14203 1.64471C4.92208 1.73269 4.75091 1.80923 4.50783 1.80923C4.31209 1.80923 4.12124 1.82041 3.94262 1.90475C3.40363 2.15928 2.72984 2.47792 2.12759 2.47792C2.02123 2.47792 1.93565 2.50155 1.83305 2.52569C1.74704 2.54592 1.36836 2.54592 1.59158 2.64244C2.03099 2.83246 2.56153 2.7645 3.0298 2.7645C3.4085 2.7645 3.76964 2.72436 4.14429 2.66898C4.65883 2.59291 5.18428 2.52569 5.70458 2.52569C5.83726 2.52569 5.96994 2.52569 6.10261 2.52569C6.16833 2.52569 6.24002 2.5326 6.30428 2.51507C6.53306 2.45268 5.83359 2.58513 5.6064 2.65306C5.03514 2.82384 4.47265 3.01173 3.88955 3.14131C3.61146 3.20311 3.33323 3.38018 3.05103 3.46504C2.84744 3.52626 2.55621 3.71978 2.34784 3.71978C2.10637 3.71978 1.86489 3.71978 1.62342 3.71978C1.55176 3.71978 1.48609 3.71023 1.43236 3.76755C1.36769 3.83653 2.03867 3.86308 2.10371 3.86308C2.78185 3.86308 3.44364 3.75807 4.1151 3.6959C4.43274 3.66649 4.7254 3.57167 5.03589 3.53403C5.21168 3.51273 5.44854 3.5812 5.61436 3.5075C5.81331 3.41908 6.03408 3.33767 6.25652 3.33767" stroke="black" stroke-linecap="round"/>
<path d="M12.6091 1.04492C12.9192 1.04492 13.1897 1.06932 13.49 1.14045C13.8697 1.23037 14.2603 1.2117 14.6417 1.28374C15.0278 1.35668 15.5252 1.40046 15.8835 1.55971C16.0377 1.62821 16.3439 1.7075 16.5151 1.71362C16.6183 1.7173 17.3359 1.76138 16.9821 1.76138C15.5268 1.76138 14.0755 1.80914 12.6197 1.80914C12.159 1.80914 13.5719 1.76836 13.9942 1.95244C14.2661 2.07094 14.6271 2.06024 14.9176 2.13288C15.1809 2.19869 15.4558 2.1593 15.7137 2.23902C16.0921 2.35597 16.4853 2.37822 16.86 2.48845C17.0679 2.54959 17.2753 2.66889 17.4969 2.66889C17.6745 2.66889 17.142 2.69154 16.9662 2.71666C16.6227 2.76573 16.3013 2.83525 15.9631 2.90771C15.2092 3.06927 14.3391 2.95548 13.5696 2.95548C13.1698 2.95548 12.77 2.95548 12.3702 2.95548C12.2275 2.95548 12.36 3.02358 12.4286 3.05101C12.6951 3.1576 12.9953 3.2185 13.2724 3.28983C14.1206 3.50809 14.9196 3.7197 15.7986 3.7197C16.248 3.7197 16.6973 3.7197 17.1466 3.7197" stroke="black" stroke-linecap="round"/>
</svg>
