<svg width="17" height="4" viewBox="0 0 17 4" fill="none" xmlns="http://www.w3.org/2000/svg">
<path d="M3.00289 2.00473C2.72117 1.96951 2.7878 1.70992 2.38518 1.84413C1.83412 2.02781 2.02707 2.2197 2.33577 2.51125C2.62501 2.78442 2.77969 3.1206 3.17584 2.89422C3.72727 2.57912 3.64759 2.00473 2.99671 2.00473C2.85628 2.00473 2.23282 1.91577 2.1381 2.02944C1.9211 2.28984 2.07481 2.76374 2.33577 2.89422" stroke="black" stroke-linecap="round"/>
<path d="M14.2326 1.55993C13.6276 1.18762 12.378 1.81123 13.232 2.31353C13.4063 2.41609 13.5881 2.5753 13.7632 2.69651C13.9127 2.8 14.6513 2.79579 14.6774 2.56061C14.7133 2.2378 14.0194 1.48472 14.0597 1.80702C14.0898 2.04759 14.6774 2.48771 14.6774 2.00468" stroke="black" stroke-linecap="round"/>
<path d="M2.74904 1.9188C2.61804 1.4967 2.41303 1.22494 2.14758 0.900491C2.00569 0.72707 1.60682 0.746267 1.52826 0.989816C1.44453 1.24937 1.47631 1.75077 1.55803 2.01408C1.63881 2.27436 1.83779 2.4025 1.9987 2.60363C2.0945 2.72338 2.56445 3.18202 2.74904 3.20509C3.11861 3.25129 3.15715 2.49695 3.24331 2.18678C3.30793 1.95415 3.56895 1.28195 3.80903 1.18038C3.91723 1.1346 4.08539 1.34602 4.13061 1.43644C4.20489 1.58501 4.15523 1.96709 4.13061 2.10936C4.09065 2.34024 3.70495 2.53778 3.48746 2.56195C3.16763 2.59748 2.93798 2.82498 3.13612 2.29397C3.25113 1.98573 3.6597 1.08785 4.03533 1.27566" stroke="black" stroke-linecap="round"/>
<path d="M14.0039 1.75788C13.918 1.60514 13.8154 1.41448 13.7062 1.27553C13.6092 1.15207 13.4507 1.06733 13.3727 0.953955C13.1533 0.634802 12.7177 0.8402 12.7177 1.19811C12.7177 1.41695 12.6847 1.62452 12.8129 1.81148C12.9686 2.03853 13.1325 2.26157 13.2834 2.49631C13.4334 2.7297 13.6217 2.86114 13.7896 3.07097C13.9099 3.22142 13.8968 2.55349 13.8968 2.4844C13.8968 2.1497 14.0479 1.85171 14.2689 1.60305C14.4519 1.39728 14.6587 1.26403 14.8972 1.13261C15.2949 0.913489 15.6117 0.676192 15.7726 1.16834C16.0024 1.87127 15.4858 2.15285 15.0252 2.55586C14.9374 2.63269 14.3341 3.04273 14.3315 3.03822C14.2537 2.90489 15.2056 1.87181 15.3438 1.65069" stroke="black" stroke-linecap="round"/>
</svg>
