<svg width="20" height="10" viewBox="0 0 20 10" fill="none" xmlns="http://www.w3.org/2000/svg">
<path d="M1 5.55862C1.66294 5.48496 2.40329 4.63829 2.86546 4.28616C3.84555 3.53942 5.53628 2.71252 6.11458 1.55591" stroke="black" stroke-linecap="round"/>
<path d="M15.1208 1C15.426 2.11884 16.5249 3.25111 17.3384 4.00204C17.8754 4.49772 18.3894 4.96249 19.0124 5.33628" stroke="black" stroke-linecap="round"/>
<path d="M5.00289 8.00473C4.72117 7.96951 4.7878 7.70992 4.38518 7.84413C3.83412 8.02781 4.02707 8.2197 4.33577 8.51125C4.62501 8.78442 4.77969 9.1206 5.17584 8.89422C5.72727 8.57912 5.64759 8.00473 4.99671 8.00473C4.85628 8.00473 4.23282 7.91577 4.1381 8.02944C3.9211 8.28984 4.07481 8.76374 4.33577 8.89422" stroke="black" stroke-linecap="round"/>
<path d="M16.2326 7.55993C15.6276 7.18762 14.378 7.81123 15.232 8.31353C15.4063 8.41609 15.5881 8.5753 15.7632 8.69651C15.9127 8.8 16.6513 8.79579 16.6774 8.56061C16.7133 8.2378 16.0194 7.48472 16.0597 7.80702C16.0898 8.04759 16.6774 8.48771 16.6774 8.00468" stroke="black" stroke-linecap="round"/>
</svg>
