<svg width="36" height="20" viewBox="0 0 36 20" fill="none" xmlns="http://www.w3.org/2000/svg">
<path d="M35.25 1C33.9243 5.31034 32.7206 9.66458 30.3565 13.5364C30.0074 14.1081 29.6117 14.6521 29.3118 15.2519" stroke="black" stroke-linecap="round"/>
<path d="M29.2128 15.252C27.9213 15.7169 27.1099 16.7488 25.9468 17.3303" stroke="black" stroke-linecap="round"/>
<path d="M29.3117 15.252C29.0181 16.2476 28.7925 17.2935 28.465 18.2761C28.4025 18.4634 28.322 18.6157 28.322 18.8149" stroke="black" stroke-linecap="round"/>
<path d="M29.6086 14.856C30.1173 16.0174 30.6925 17.2168 31.0932 18.4189" stroke="black" stroke-linecap="round"/>
<path d="M0.708984 1.39575C2.29694 4.98067 3.69051 8.74034 5.58057 12.1836C6.15133 13.2234 6.80727 14.2135 7.41704 15.2297C7.52515 15.4099 7.49738 15.6476 7.73594 15.6476" stroke="black" stroke-linecap="round"/>
<path d="M7.73608 15.6477C8.61518 16.1117 9.45747 16.6662 10.3313 17.1323C10.601 17.2761 10.8932 17.2647 11.1396 17.4732C11.2676 17.5815 11.3275 17.6271 11.497 17.6271" stroke="black" stroke-linecap="round"/>
<path d="M7.73608 15.3508C8.32192 16.5846 8.93001 17.9366 9.51757 19.1117" stroke="black" stroke-linecap="round"/>
<path d="M7.4393 16.0437C7.43179 17.1036 7.34033 18.1525 7.34033 19.2108" stroke="black" stroke-linecap="round"/>
</svg>
