<svg width="36" height="14" viewBox="0 0 36 14" fill="none" xmlns="http://www.w3.org/2000/svg">
<path d="M5.10572 1.46826C5.8538 2.35883 6.43746 3.34987 7.28157 4.14835C7.72425 4.5671 8.07793 5.08156 8.58017 5.43313C8.98271 5.71491 9.26831 5.90982 9.58175 6.31728C10.1334 7.03448 10.6215 7.62201 10.6938 8.5622C10.7775 9.64941 10.0637 10.7391 9.29163 11.4288C8.5823 12.0625 7.28809 12.46 6.34906 12.5271C5.1519 12.6126 4.45597 12.0217 3.55846 11.3183C2.64062 10.5989 2.01684 9.58606 1.37571 8.62437C0.893665 7.9013 0.876202 6.93461 0.505371 6.19295" stroke="black" stroke-linecap="round"/>
<path d="M30.2211 1.34375C29.7546 1.6353 29.5306 2.55779 29.1298 3.00154C28.743 3.42977 28.4752 4.0401 28.0453 4.50736C27.234 5.38914 26.3986 6.22778 26.1457 7.46374C25.8309 9.00286 26.9232 10.5533 28.0522 11.477C28.6952 12.0031 28.9963 12.2311 29.7929 12.3818C30.6515 12.5443 32.0562 11.2557 32.5282 10.655C33.9295 8.87154 34.7401 6.9344 35.4432 4.8251" stroke="black" stroke-linecap="round"/>
</svg>
