<svg width="59" height="17" viewBox="0 0 59 17" fill="none" xmlns="http://www.w3.org/2000/svg">
<path d="M11.7214 7.85461C12.4413 8.16957 13.2228 8.12751 13.9529 8.36115L16.5 14.5L7.42263 16.4932C6.80897 16.4932 6.42987 15.9972 5.88248 15.7539C5.2327 15.4651 4.48044 14.7522 4.03429 14.2069C3.73824 13.8451 3.3768 13.5199 3.04859 13.1664C2.73966 12.8338 2.63933 12.4044 2.34354 12.0849C1.72092 11.4125 1.02011 10.3096 0.796533 9.41531C0.465596 8.09156 0.523792 6.56112 1.15248 5.35613C1.44484 4.79578 2.74294 4.39341 3.32924 4.17192C3.81969 3.98664 4.45118 3.99768 4.97207 4.05556C6.64316 4.24123 7.728 5.31039 9.14761 6.04749C10.0787 6.53097 10.726 7.41913 11.7214 7.85461Z" fill="white"/>
<path d="M48.1101 7.00586C47.3423 7.55435 46.3873 8.73084 45.3721 8.73084L51.7791 15.754C53.1899 15.4013 54.3524 14.5617 55.2838 13.4608C55.5793 13.1116 55.7498 12.6301 55.9752 12.2356C56.3802 11.5269 56.9282 10.9113 57.2484 10.1478L57.251 10.1415C57.9762 8.41226 58.8546 6.31763 58.1862 4.39102C57.7509 3.13645 57.3306 1.63666 56.1874 0.845233C54.9736 0.00491655 53.7541 1.34815 52.9291 2.17319C52.2461 2.85621 51.9513 3.83951 51.2247 4.52792C50.8157 4.9154 50.23 5.30372 49.9309 5.77374C49.5597 6.35717 48.659 6.6138 48.1101 7.00586Z" fill="white"/>
<path d="M13.9529 8.36115C13.2228 8.12751 12.4413 8.16957 11.7214 7.85461C10.726 7.41913 10.0787 6.53097 9.14761 6.04749C7.728 5.31039 6.64316 4.24123 4.97207 4.05556C4.45118 3.99768 3.81969 3.98664 3.32924 4.17192C2.74294 4.39341 1.44484 4.79578 1.15248 5.35613C0.523792 6.56112 0.465596 8.09156 0.796533 9.41531C1.02011 10.3096 1.72092 11.4125 2.34354 12.0849C2.63933 12.4044 2.73966 12.8338 3.04859 13.1664C3.3768 13.5199 3.73824 13.8451 4.03429 14.2069C4.48044 14.7522 5.2327 15.4651 5.88248 15.7539C6.42987 15.9972 6.80897 16.4932 7.42263 16.4932" stroke="black" stroke-linecap="round"/>
<path d="M45.3721 8.73084C46.3873 8.73084 47.3423 7.55435 48.1101 7.00586C48.659 6.6138 49.5597 6.35717 49.9309 5.77374C50.23 5.30372 50.8157 4.9154 51.2247 4.52792C51.9513 3.83951 52.2461 2.85621 52.9291 2.17319C53.7541 1.34815 54.9736 0.00491658 56.1874 0.845233C57.3306 1.63666 57.7509 3.13645 58.1862 4.39102C58.8554 6.31997 57.9741 8.41735 57.2484 10.1478C56.9282 10.9113 56.3802 11.5269 55.9752 12.2356C55.7498 12.6301 55.5793 13.1116 55.2838 13.4608C54.3524 14.5617 53.1899 15.4013 51.7791 15.754" stroke="black" stroke-linecap="round"/>
</svg>
