<svg width="56" height="13" viewBox="0 0 56 13" fill="none" xmlns="http://www.w3.org/2000/svg">
<path d="M8.61289 11.5157C6.46823 11.4577 4.5338 10.0821 3.12656 8.55956C2.503 7.88489 2.20433 7.36184 2.10011 6.46561C1.99021 5.52046 2.28557 4.81332 2.40292 3.90977C2.45678 3.49503 2.40258 3.41675 2.1463 3.16047C1.8749 2.88907 1.79622 2.46868 1.54584 2.19048C1.14648 1.74676 1.13013 1.26356 1.13013 0.707275" stroke="black" stroke-linecap="round"/>
<path d="M2.79286 0.707275C3.2079 1.07043 2.50914 2.58776 2.42334 3.01677" stroke="black" stroke-linecap="round"/>
<path d="M2.70044 3.20164C3.59421 2.78455 4.78602 1.99642 5.19469 1.0769" stroke="black" stroke-linecap="round"/>
<path d="M47.2791 10.8698C48.394 10.8698 48.8955 10.7406 49.8988 10.1712C50.7037 9.7144 51.3351 8.91188 52.0529 8.32766C52.3681 8.07109 52.7218 7.80371 52.9067 7.4544C53.3839 6.55311 53.7411 6.12684 53.7411 5.0675C53.7411 4.38183 53.7411 3.69617 53.7411 3.0105" stroke="black" stroke-linecap="round"/>
<path d="M53.5409 2.87898C53.1627 2.72588 52.8127 2.50662 52.5202 2.22204C52.3224 2.02959 51.9773 1.71197 51.9773 1.41309" stroke="black" stroke-linecap="round"/>
<path d="M53.541 0.631104C53.6057 1.34291 53.6125 2.07838 53.7365 2.78109" stroke="black" stroke-linecap="round"/>
<path d="M54.2739 2.6345C54.3353 2.57313 54.4397 2.55007 54.4884 2.48519C54.5439 2.4112 54.5621 2.30514 54.616 2.2273C54.746 2.03941 54.8282 1.8039 54.9091 1.58122C55.0308 1.24678 55.2808 0.981991 55.3978 0.631104" stroke="black" stroke-linecap="round"/>
</svg>
