<svg width="34" height="16" viewBox="0 0 34 16" fill="none" xmlns="http://www.w3.org/2000/svg">
<path d="M0.850586 6.29075C1.61595 3.88533 4.03062 1.6698 6.64506 1.5064C7.39896 1.45928 7.95987 1.37004 8.25811 2.15632C8.577 2.99704 8.88454 3.5663 8.88454 4.46628C8.88454 6.28597 8.07384 8.00933 7.28715 9.61082C6.89643 10.4062 6.48517 11.2153 6.23788 12.0696C5.99552 12.9068 5.91798 13.7971 5.36088 14.4656" stroke="black" stroke-linecap="round"/>
<path d="M32.8454 6.29075C32.0359 4.69109 31.2685 2.99192 29.8072 1.87442C29.4285 1.58486 28.7941 0.807743 28.3351 0.793835C27.5142 0.768958 27.0109 1.03633 26.3149 1.46725C25.7053 1.8446 24.6972 3.06458 24.6705 3.78503C24.6308 4.85656 24.7949 5.90431 24.8114 6.96416C24.8214 7.60353 24.6302 8.51411 24.9524 9.09402C25.1449 9.44053 25.4101 9.74814 25.5945 10.0963C26.0419 10.9415 26.6033 11.7214 27.0979 12.5394C27.5507 13.2882 28.3791 13.8489 28.7579 14.6066" stroke="black" stroke-linecap="round"/>
</svg>
