<svg width="17" height="10" viewBox="0 0 17 10" fill="none" xmlns="http://www.w3.org/2000/svg">
<path d="M9.91989 3.18512C9.83619 3.23162 9.71989 3.42455 9.71989 3.24295L9.52271 3.27319C9.52271 4.80461 10.4751 5.99862 11.6718 6.89609C12.0025 7.14414 12.3553 7.39168 12.6453 7.68166C12.8263 7.86268 13.2187 7.82015 13.4381 7.92986C13.5719 7.99678 13.6054 8.05085 13.7634 8.05758C14.1198 8.07274 14.4116 8.31783 14.7731 8.31783C15.0911 8.31783 15.3457 8.09189 15.5948 7.91781C16.1275 7.54555 16.2261 7.26975 16.2261 6.61174C16.2261 6.04885 16.2079 5.48528 16.2599 4.92494C16.3224 4.25096 16.3341 3.55435 16.2478 2.88149C16.1985 2.49666 16.0547 1.98149 15.8117 1.66699C15.6735 1.48819 15.4818 1.35419 15.3153 1.20432C15.0689 0.982604 14.6599 1.05516 14.3562 1.00914C14.0735 0.966307 13.8032 1.08637 13.52 1.11516C13.1656 1.15121 12.8753 1.27028 12.5489 1.41156C12.0897 1.61032 11.7168 1.95401 11.3031 2.21882C10.8271 2.52345 10.4159 2.90954 9.91989 3.18512Z" fill="#C4E8FF" stroke="black" stroke-linecap="round"/>
<path d="M5.04702 1.69691C6.03367 2.29324 7.00581 2.65919 7.55527 3.70962C7.77692 3.49487 8.06776 3.36188 8.40167 3.36188C8.67414 3.36188 9.35978 3.23095 9.54736 3.46903C9.89114 3.90537 9.90179 4.33746 9.90179 4.87848C9.90179 5.44182 9.97134 5.73998 9.36603 5.94175C8.97395 6.07244 8.43479 6.28388 8.04725 6.09011C7.85029 5.99163 7.26597 5.83616 7.14249 5.53917C7.15064 5.66127 7.15707 5.77797 7.15707 5.88405C7.15707 6.5058 6.47189 6.71073 6.15974 7.16162C5.77022 7.72426 5.22113 7.95304 4.74205 8.40622C4.35647 8.77096 3.71955 9.18047 3.19248 9.27992C2.73733 9.36579 2.42919 9.15923 2.11272 8.85131C1.3849 8.14316 1 7.69958 1 6.62587C1 5.69707 1.1332 4.78107 1.14836 3.85642C1.1605 3.116 1.70078 2.02409 2.3023 1.56504C3.09051 0.963509 4.25921 1.22077 5.04702 1.69691Z" fill="#C4E8FF"/>
<path d="M7.55527 3.70962C7.00581 2.65919 6.03367 2.29324 5.04702 1.69691C4.25921 1.22077 3.09051 0.963509 2.3023 1.56504C1.70078 2.02409 1.1605 3.116 1.14836 3.85642C1.1332 4.78107 1 5.69707 1 6.62587C1 7.69958 1.3849 8.14316 2.11272 8.85131C2.42919 9.15923 2.73733 9.36579 3.19248 9.27992C3.71955 9.18047 4.35647 8.77096 4.74205 8.40622C5.22113 7.95304 5.77022 7.72426 6.15974 7.16162C6.47189 6.71074 7.15707 6.5058 7.15707 5.88405C7.15707 5.42862 7.0386 4.77756 7.17355 4.34272C7.34629 3.78613 7.80527 3.36188 8.40167 3.36188C8.67414 3.36188 9.35978 3.23095 9.54736 3.46903C9.89115 3.90537 9.90179 4.33746 9.90179 4.87848C9.90179 5.44182 9.97134 5.73998 9.36603 5.94175C8.97395 6.07244 8.43479 6.28388 8.04725 6.09011C7.81178 5.97238 7.02271 5.77319 7.12924 5.34813" stroke="black" stroke-linecap="round"/>
</svg>
