<svg width="40" height="31" viewBox="0 0 40 31" fill="none" xmlns="http://www.w3.org/2000/svg">
<path d="M7.71614 2.57373C7.19433 2.23791 6.77049 1.99622 6.34713 1.57286L5.99829 1.27319C5.14945 1.27319 5.436 1.98701 4.75955 1.98701C4.28852 1.98701 3.54084 3.05586 3.45957 3.48257C3.39252 3.83453 3.60805 4.16431 3.54585 4.50644C3.5275 4.60734 3.05986 4.60784 2.97064 4.62724C2.20905 4.7928 2.0172 5.03571 1.74543 5.81218C1.59993 6.2279 1.57806 7.19675 1.71092 7.59533C2.16052 8.94413 3.0804 10.6413 4.32814 11.455C4.86013 11.802 5.37986 12.1781 5.93298 12.4904C6.49451 12.8074 6.85139 12.8343 6.59447 13.4337C6.17437 14.414 5.59596 15.4348 5.00113 16.3271C3.93696 17.9233 2.97635 19.6023 2.03304 21.2681C1.74983 21.7683 1.34514 22.1788 1.18748 22.7464C0.98667 23.4693 0.962044 24.2863 1.04367 25.03C1.11411 25.6717 1.55116 26.2123 2.05605 26.5716C3.47718 27.5828 5.15515 27.8716 6.88783 27.8716C8.20863 27.8716 9.97739 27.9266 10.7302 26.5946C11.2703 25.6392 11.2134 24.6838 11.2134 23.6265C11.2134 22.4447 11.235 21.303 11.3975 20.1292C11.5123 19.3 11.5606 18.4999 11.8347 17.7018C12.1274 16.8493 12.4292 15.9991 12.686 15.1364C12.7981 14.7597 12.8505 14.3419 13.3302 14.5612C13.639 14.7023 13.9537 14.833 14.2621 14.9753C14.9935 15.3129 15.8075 15.3498 16.5399 15.7001C17.3995 16.1112 18.4045 16.2023 19.3297 16.3731C21.2098 16.7202 23.2645 16.3658 25.0991 15.9072C26.0156 15.678 26.9712 15.5957 27.8486 15.2284C29.5746 14.5059 31.345 13.8302 32.8587 12.709C34.5917 11.4252 36.0813 9.97416 37.6559 8.52718C38.118 8.10254 38.5475 7.50992 38.5475 6.85331C38.5475 6.17385 38.6163 5.57921 38.5533 4.88608C38.5091 4.40081 38.4213 3.91965 38.2887 3.44805C38.1268 2.87237 38.0654 2.55103 37.4374 2.78081C37.1954 2.86933 35.7967 3.76029 35.7462 3.48257C35.6851 3.1463 35.5385 2.82885 35.3378 2.55647C34.7728 1.78964 33.8912 1.36093 33.0542 1.83171C32.4282 2.18383 31.5426 2.49943 30.8627 2.73479C30.0135 3.02873 29.3032 3.85 28.3893 3.97725C27.8353 4.05438 27.2857 4.36839 26.7442 4.36839C26.1894 4.36839 25.6317 4.40552 25.0875 4.28786C24.3783 4.13451 23.5071 4.26485 22.7867 4.26485H19.508C17.7211 4.26485 15.7881 4.44713 14.009 4.24185C13.0972 4.13665 12.1773 4.14071 11.2709 4.03477C10.6928 3.9672 9.50062 3.86884 9.11965 3.37903C8.82486 3.00001 8.11308 2.82919 7.71614 2.57373Z" fill="#A0D264" stroke="black" stroke-linecap="round"/>
<path d="M6.13184 12.5806C6.24229 12.5944 6.37927 12.7248 6.48445 12.7696C6.61908 12.8271 6.74985 12.8794 6.88816 12.9255C7.21314 13.0338 7.5257 13.175 7.85402 13.2756C8.21483 13.3861 8.61083 13.5593 8.98851 13.5873C9.27175 13.6083 9.5407 13.6377 9.82149 13.6793C10.0051 13.7065 10.1692 13.7862 10.353 13.8122C10.9576 13.8974 11.6217 14.0106 12.1927 14.2363C12.364 14.3041 12.52 14.4368 12.7088 14.4637C12.829 14.4809 12.9709 14.4844 13.0308 14.6043" stroke="black" stroke-linecap="round"/>
<path d="M1.86517 26.5723C1.74008 27.0858 1.50557 27.566 1.3867 28.0826C1.32577 28.3474 1.28033 28.7611 1.37838 29.0062" stroke="black" stroke-linecap="round"/>
<path d="M4.18673 27.8455C4.10958 28.2055 3.94311 28.5767 3.9267 28.9459C3.91736 29.1561 3.92462 29.368 3.92462 29.5783C3.92462 29.7461 3.88921 29.9465 3.96206 30.0922" stroke="black" stroke-linecap="round"/>
<path d="M6.95776 28.2947C7.08655 28.9789 6.99521 29.6623 6.99521 30.3542" stroke="black" stroke-linecap="round"/>
<path d="M9.56592 27.8787C9.79893 28.4818 9.99654 29.0682 10.0873 29.7035" stroke="black" stroke-linecap="round"/>
</svg>
