<svg width="40" height="31" viewBox="0 0 40 31" fill="none" xmlns="http://www.w3.org/2000/svg">
<path d="M7.71785 2.57373C7.19604 2.23791 6.7722 1.99622 6.34884 1.57286L6 1.27319C5.15116 1.27319 5.43771 1.98701 4.76125 1.98701C4.29023 1.98701 3.54255 3.05586 3.46127 3.48257C3.39423 3.83453 3.60976 4.16431 3.54756 4.50644C3.52921 4.60734 3.06157 4.60784 2.97234 4.62724C2.21076 4.7928 2.01891 5.03571 1.74714 5.81218C1.60164 6.2279 1.57977 7.19675 1.71263 7.59533C2.16223 8.94413 3.08211 10.6413 4.32985 11.455C4.86184 11.802 5.38157 12.1781 5.93469 12.4904C6.49622 12.8074 6.8531 12.8343 6.59618 13.4337C6.17608 14.414 5.59767 15.4348 5.00284 16.3271C3.93866 17.9233 2.97806 19.6023 2.03475 21.2681C1.75153 21.7683 1.34685 22.1788 1.18919 22.7464C0.988379 23.4693 0.963753 24.2863 1.04538 25.03C1.11581 25.6717 1.55287 26.2123 2.05776 26.5716C3.47889 27.5828 5.15686 27.8716 6.88954 27.8716C8.21034 27.8716 9.9791 27.9266 10.732 26.5946C11.272 25.6392 11.2151 24.6838 11.2151 23.6265C11.2151 22.4447 11.2367 21.303 11.3992 20.1292C11.514 19.3 11.5623 18.4999 11.8364 17.7018C12.1292 16.8493 12.4309 15.9991 12.6877 15.1364C12.7998 14.7597 12.8522 14.3419 13.3319 14.5612C13.6407 14.7023 13.9554 14.833 14.2638 14.9753C14.9952 15.3129 15.8092 15.3498 16.5416 15.7001C17.4012 16.1112 18.4062 16.2023 19.3314 16.3731C21.2115 16.7202 23.2663 16.3658 25.1008 15.9072C26.0174 15.678 26.9729 15.5957 27.8503 15.2284C29.5763 14.5059 31.3467 13.8302 32.8604 12.709C34.5934 11.4252 36.083 9.97416 37.6576 8.52718C38.1197 8.10254 38.5492 7.50992 38.5492 6.85331C38.5492 6.17385 38.618 5.57921 38.555 4.88608C38.5109 4.40081 38.423 3.91965 38.2904 3.44805C38.1285 2.87237 38.0671 2.55103 37.4391 2.78081C37.1971 2.86933 35.7984 3.76029 35.7479 3.48257C35.6868 3.1463 35.5402 2.82885 35.3395 2.55647C34.7745 1.78964 33.8929 1.36093 33.0559 1.83171C32.4299 2.18383 31.5443 2.49943 30.8644 2.73479C30.0152 3.02873 29.3049 3.85 28.391 3.97725C27.837 4.05438 27.2875 4.36839 26.7459 4.36839C26.1911 4.36839 25.6334 4.40552 25.0893 4.28786C24.38 4.13451 23.5088 4.26485 22.7884 4.26485H19.5097C17.7228 4.26485 15.7898 4.44713 14.0107 4.24185C13.0989 4.13665 12.1791 4.14071 11.2727 4.03477C10.6945 3.9672 9.50233 3.86884 9.12136 3.37903C8.82657 3.00001 8.11479 2.82919 7.71785 2.57373Z" fill="#FF5858" stroke="black" stroke-linecap="round"/>
<path d="M6.13354 12.5806C6.24399 12.5944 6.38098 12.7248 6.48616 12.7696C6.62079 12.8271 6.75156 12.8794 6.88987 12.9255C7.21485 13.0338 7.52741 13.175 7.85573 13.2756C8.21653 13.3861 8.61254 13.5593 8.99022 13.5873C9.27346 13.6083 9.54241 13.6377 9.8232 13.6793C10.0068 13.7065 10.1709 13.7862 10.3547 13.8122C10.9594 13.8974 11.6234 14.0106 12.1944 14.2363C12.3658 14.3041 12.5217 14.4368 12.7105 14.4637C12.8307 14.4809 12.9726 14.4844 13.0325 14.6043" stroke="black" stroke-linecap="round"/>
<path d="M1.86688 26.5723C1.74179 27.0858 1.50728 27.566 1.38841 28.0826C1.32748 28.3474 1.28204 28.7611 1.38009 29.0062" stroke="black" stroke-linecap="round"/>
<path d="M4.18844 27.8455C4.11129 28.2055 3.94482 28.5767 3.92841 28.9459C3.91907 29.1561 3.92633 29.368 3.92633 29.5783C3.92633 29.7461 3.89092 29.9465 3.96377 30.0922" stroke="black" stroke-linecap="round"/>
<path d="M6.95947 28.2947C7.08826 28.9789 6.99692 29.6623 6.99692 30.3542" stroke="black" stroke-linecap="round"/>
<path d="M9.56763 27.8787C9.80064 28.4818 9.99825 29.0682 10.089 29.7035" stroke="black" stroke-linecap="round"/>
</svg>
